<?xml version="1.0" encoding="utf-8"?>
<!-- Generator: Adobe Illustrator 16.0.3, SVG Export Plug-In . SVG Version: 6.00 Build 0)  -->
<!DOCTYPE svg PUBLIC "-//W3C//DTD SVG 1.1//EN" "http://www.w3.org/Graphics/SVG/1.1/DTD/svg11.dtd">
<svg version="1.1" id="Capa_1" xmlns="http://www.w3.org/2000/svg" xmlns:xlink="http://www.w3.org/1999/xlink" x="0px" y="0px"
	 width="29.52px" height="18px" viewBox="0 0 29.52 18" enable-background="new 0 0 29.52 18" xml:space="preserve">
<line fill="none" x1="21.348" y1="4314.958" x2="21.348" y2="-206.463"/>
<line fill="none" x1="21.348" y1="4314.958" x2="21.348" y2="-206.463"/>
<line fill="none" x1="21.349" y1="-206.462" x2="21.349" y2="4314.958"/>
<line fill="none" x1="21.349" y1="-206.462" x2="21.349" y2="4314.958"/>
<line fill="none" x1="21.349" y1="-206.462" x2="21.349" y2="4314.958"/>
<line fill="none" x1="21.349" y1="-206.462" x2="21.349" y2="4314.958"/>
<line fill="none" x1="21.349" y1="-206.462" x2="21.349" y2="4314.958"/>
<line fill="none" x1="21.349" y1="-206.462" x2="21.349" y2="4314.958"/>
<line fill="none" x1="21.349" y1="-206.462" x2="21.349" y2="4314.958"/>
<line fill="none" x1="21.349" y1="-206.462" x2="21.349" y2="4314.958"/>
<line fill="none" x1="21.349" y1="-206.462" x2="21.349" y2="4314.958"/>
<line fill="none" x1="21.349" y1="-206.462" x2="21.349" y2="4314.958"/>
<line fill="none" x1="21.349" y1="-206.462" x2="21.349" y2="4314.958"/>
<line fill="none" x1="21.349" y1="-206.462" x2="21.349" y2="4314.958"/>
<line fill="none" x1="21.349" y1="-206.462" x2="21.349" y2="4314.958"/>
<line fill="none" x1="21.349" y1="-206.462" x2="21.349" y2="4314.958"/>
<line fill="none" x1="21.349" y1="-206.462" x2="21.349" y2="4314.958"/>
<line fill="none" x1="21.349" y1="-206.462" x2="21.349" y2="4314.958"/>
<line fill="none" x1="21.349" y1="-206.462" x2="21.349" y2="4314.958"/>
<line fill="none" x1="21.349" y1="-206.462" x2="21.349" y2="4314.958"/>
<path fill="none" d="M403.619-2251.993"/>
<path fill="none" d="M403.619-1736.782"/>
<line fill="none" x1="20.745" y1="190.322" x2="20.745" y2="-145.679"/>
<g>
	<defs>
		<polygon id="SVGID_2_" points="1,1 2,1 1,2 		"/>
	</defs>
	<defs>
		<polygon id="SVGID_3_" points="-1,-1 -2,-1 -1,-2 		"/>
	</defs>
	<clipPath id="SVGID_4_">
		<use xlink:href="#SVGID_2_"  overflow="visible"/>
	</clipPath>
	<clipPath id="SVGID_5_" clip-path="url(#SVGID_4_)">
		<use xlink:href="#SVGID_3_"  overflow="visible"/>
	</clipPath>
	<defs>
		<filter id="Adobe_OpacityMaskFilter" filterUnits="userSpaceOnUse" x="20.745" y="-156.12" width="0" height="362.347">
			<feColorMatrix  type="matrix" values="1 0 0 0 0  0 1 0 0 0  0 0 1 0 0  0 0 0 1 0"/>
		</filter>
	</defs>
	<mask maskUnits="userSpaceOnUse" x="20.745" y="-156.12" width="0" height="362.347" id="SVGID_1_">
		<g filter="url(#Adobe_OpacityMaskFilter)">
			
				<linearGradient id="SVGID_6_" gradientUnits="userSpaceOnUse" x1="-366.1169" y1="-2249.3403" x2="-365.1169" y2="-2249.3403" gradientTransform="matrix(-768 0 0 -768 -280777.5625 -1729507.5)">
				<stop  offset="0" style="stop-color:#000000"/>
				<stop  offset="1" style="stop-color:#FFFFFF"/>
			</linearGradient>
			<rect x="-367.603" y="-2195.324" clip-path="url(#SVGID_5_)" fill="url(#SVGID_6_)" width="768.001" height="362.345"/>
		</g>
	</mask>
	<line clip-path="url(#SVGID_5_)" mask="url(#SVGID_1_)" fill="none" x1="20.745" y1="-156.12" x2="20.745" y2="206.227"/>
</g>
<line fill="none" x1="20.745" y1="-156.12" x2="20.745" y2="206.227"/>
<line fill="none" x1="20.745" y1="206.229" x2="20.745" y2="-156.123"/>
<line fill="none" x1="21.349" y1="-206.462" x2="21.349" y2="4314.958"/>
<line fill="none" x1="21.349" y1="-206.462" x2="21.349" y2="4314.958"/>
<line fill="none" x1="21.349" y1="-206.462" x2="21.349" y2="4314.958"/>
<line fill="none" x1="21.349" y1="-206.462" x2="21.349" y2="4314.958"/>
<line fill="none" x1="21.349" y1="-206.462" x2="21.349" y2="4314.958"/>
<line fill="none" x1="21.349" y1="-206.462" x2="21.349" y2="4314.958"/>
<line fill="none" x1="21.349" y1="-206.462" x2="21.349" y2="4314.958"/>
<line fill="none" x1="21.349" y1="-206.462" x2="21.349" y2="4314.958"/>
<line fill="none" x1="21.349" y1="-206.462" x2="21.349" y2="4314.958"/>
<path fill="none" stroke="#D8D8D8" stroke-width="0.75" stroke-miterlimit="10" d="M-250.181-2048.831"/>
<line fill="none" x1="21.349" y1="-206.462" x2="21.349" y2="4314.958"/>
<line fill="none" x1="21.349" y1="-206.462" x2="21.349" y2="4314.958"/>
<line fill="none" x1="21.349" y1="-206.462" x2="21.349" y2="4314.958"/>
<line fill="none" x1="21.349" y1="-206.462" x2="21.349" y2="4314.958"/>
<line fill="none" x1="21.349" y1="-206.462" x2="21.349" y2="4314.958"/>
<line fill="none" x1="21.349" y1="-206.462" x2="21.349" y2="4314.958"/>
<line fill="none" x1="21.349" y1="-206.462" x2="21.349" y2="4314.958"/>
<line fill="none" x1="21.349" y1="-206.462" x2="21.349" y2="4314.958"/>
<line fill="none" x1="21.349" y1="-206.462" x2="21.349" y2="4314.958"/>
<line fill="none" x1="21.349" y1="-206.462" x2="21.349" y2="4314.958"/>
<line fill="none" x1="21.349" y1="-206.462" x2="21.349" y2="4314.958"/>
<line fill="none" x1="21.349" y1="-206.462" x2="21.349" y2="4314.958"/>
<line fill="none" x1="21.349" y1="-206.462" x2="21.349" y2="4314.958"/>
<line fill="none" x1="21.349" y1="-206.462" x2="21.349" y2="4314.958"/>
<line fill="none" x1="21.349" y1="-206.462" x2="21.349" y2="4314.958"/>
<line fill="none" x1="21.349" y1="-206.462" x2="21.349" y2="4314.958"/>
<path fill="none" stroke="#D8D8D8" stroke-width="0.75" stroke-miterlimit="10" d="M-250.181-2048.831"/>
<line fill="none" x1="21.349" y1="-206.462" x2="21.349" y2="4314.958"/>
<line fill="none" x1="21.349" y1="-206.462" x2="21.349" y2="4314.958"/>
<line fill="none" x1="21.349" y1="-206.462" x2="21.349" y2="4314.958"/>
<line fill="none" x1="21.349" y1="-206.462" x2="21.349" y2="4314.958"/>
<line fill="none" x1="21.349" y1="4314.958" x2="21.349" y2="-206.462"/>
<line fill="none" x1="21.348" y1="-206.462" x2="21.348" y2="4314.958"/>
<line fill="none" x1="21.349" y1="4314.958" x2="21.349" y2="-206.462"/>
<line fill="none" x1="69.349" y1="4314.958" x2="69.349" y2="-206.462"/>
<line fill="none" x1="75.348" y1="-206.462" x2="75.348" y2="4314.958"/>
<path fill="#606060" d="M22.349-206.462"/>
<path fill="#606060" d="M22.349,4314.958"/>
<path fill="none" d="M401-2245.667"/>
<path fill="none" d="M401,2275.753"/>
<polyline fill="none" stroke="#000000" stroke-miterlimit="10" points="7.187,6.333 15.127,13.333 23.854,6.333 "/>
</svg>
