<?xml version="1.0" encoding="utf-8"?>
<!-- Generator: Adobe Illustrator 16.0.3, SVG Export Plug-In . SVG Version: 6.00 Build 0)  -->
<!DOCTYPE svg PUBLIC "-//W3C//DTD SVG 1.1//EN" "http://www.w3.org/Graphics/SVG/1.1/DTD/svg11.dtd">
<svg version="1.1" id="Capa_1" xmlns="http://www.w3.org/2000/svg" xmlns:xlink="http://www.w3.org/1999/xlink" x="0px" y="0px"
	 width="29.52px" height="18px" viewBox="0 0 29.52 18" enable-background="new 0 0 29.52 18" xml:space="preserve">
<path fill="#FFFFFF" d="M21.348-206.463"/>
<path fill="#FFFFFF" d="M21.348,4314.958"/>
<path fill="#FFFFFF" d="M21.348-206.463"/>
<path fill="#FFFFFF" d="M21.348,4314.958"/>
<path fill="none" d="M21.349,4314.958"/>
<path fill="none" d="M21.349-206.462"/>
<path fill="none" d="M21.349,4314.958"/>
<path fill="none" d="M21.349-206.462"/>
<path fill="none" d="M21.349,4314.958"/>
<path fill="none" d="M21.349-206.462"/>
<path fill="none" d="M21.349,4314.958"/>
<path fill="none" d="M21.349-206.462"/>
<path fill="none" d="M21.349,4314.958"/>
<path fill="none" d="M21.349-206.462"/>
<path fill="none" d="M21.349,4314.958"/>
<path fill="none" d="M21.349-206.462"/>
<path fill="none" d="M21.349,4314.958"/>
<path fill="none" d="M21.349-206.462"/>
<path fill="none" d="M21.349,4314.958"/>
<path fill="none" d="M21.349-206.462"/>
<path fill="none" d="M21.349,4314.958"/>
<path fill="none" d="M21.349-206.462"/>
<path fill="none" d="M21.349,4314.958"/>
<path fill="none" d="M21.349-206.462"/>
<path fill="none" d="M21.349,4314.958"/>
<path fill="none" d="M21.349-206.462"/>
<path fill="none" d="M21.349,4314.958"/>
<path fill="none" d="M21.349-206.462"/>
<path fill="none" d="M21.349,4314.958"/>
<path fill="none" d="M21.349-206.462"/>
<path fill="none" d="M21.349,4314.958"/>
<path fill="none" d="M21.349-206.462"/>
<path fill="none" d="M21.349,4314.958"/>
<path fill="none" d="M21.349-206.462"/>
<path fill="none" d="M21.349,4314.958"/>
<path fill="none" d="M21.349-206.462"/>
<path fill="none" d="M21.349,4314.958"/>
<path fill="none" d="M21.349-206.462"/>
<path fill="none" d="M21.349,4314.958"/>
<path fill="none" d="M21.349-206.462"/>
<path fill="none" d="M403.619-2251.993"/>
<path fill="none" d="M403.619-1736.782"/>
<path fill="none" d="M20.745-145.679"/>
<path fill="none" d="M20.745,190.322"/>
<defs>
	<filter id="Adobe_OpacityMaskFilter" filterUnits="userSpaceOnUse" x="20.745" y="206.226" width="0" height="0">
		<feColorMatrix  type="matrix" values="1 0 0 0 0  0 1 0 0 0  0 0 1 0 0  0 0 0 1 0"/>
	</filter>
</defs>
<mask maskUnits="userSpaceOnUse" x="20.745" y="206.226" width="0" height="0" id="SVGID_1_">
	<g filter="url(#Adobe_OpacityMaskFilter)">
		
			<linearGradient id="SVGID_2_" gradientUnits="userSpaceOnUse" x1="-365.9985" y1="2273.3374" x2="-364.9985" y2="2273.3374" gradientTransform="matrix(-768 0 0 768 -280686.5 -1747936.75)">
			<stop  offset="0" style="stop-color:#000000"/>
			<stop  offset="1" style="stop-color:#FFFFFF"/>
		</linearGradient>
		<rect x="-367.603" y="-2195.324" fill="url(#SVGID_2_)" width="768" height="362.345"/>
	</g>
</mask>
<linearGradient id="SVGID_3_" gradientUnits="userSpaceOnUse" x1="-365.5044" y1="2276.228" x2="-365.5044" y2="2276.228" gradientTransform="matrix(-768 0 0 768 -280686.5 -1747936.75)">
	<stop  offset="0" style="stop-color:#FFFFFF"/>
	<stop  offset="1" style="stop-color:#000000"/>
</linearGradient>
<path mask="url(#SVGID_1_)" fill="url(#SVGID_3_)" d="M20.745,206.226"/>
<defs>
	<filter id="Adobe_OpacityMaskFilter_1_" filterUnits="userSpaceOnUse" x="20.745" y="-156.12" width="0" height="0">
		<feColorMatrix  type="matrix" values="1 0 0 0 0  0 1 0 0 0  0 0 1 0 0  0 0 0 1 0"/>
	</filter>
</defs>
<mask maskUnits="userSpaceOnUse" x="20.745" y="-156.12" width="0" height="0" id="SVGID_4_">
	<g filter="url(#Adobe_OpacityMaskFilter_1_)">
		
			<linearGradient id="SVGID_5_" gradientUnits="userSpaceOnUse" x1="-365.9985" y1="2273.3374" x2="-364.9985" y2="2273.3374" gradientTransform="matrix(-768 0 0 768 -280686.5 -1747936.75)">
			<stop  offset="0" style="stop-color:#000000"/>
			<stop  offset="1" style="stop-color:#FFFFFF"/>
		</linearGradient>
		<rect x="-367.603" y="-2195.324" fill="url(#SVGID_5_)" width="768" height="362.345"/>
	</g>
</mask>
<linearGradient id="SVGID_6_" gradientUnits="userSpaceOnUse" x1="-365.5044" y1="2275.7563" x2="-365.5044" y2="2275.7563" gradientTransform="matrix(-768 0 0 768 -280686.5 -1747936.75)">
	<stop  offset="0" style="stop-color:#FFFFFF"/>
	<stop  offset="1" style="stop-color:#000000"/>
</linearGradient>
<path mask="url(#SVGID_4_)" fill="url(#SVGID_6_)" d="M20.745-156.12"/>
<path fill="none" d="M20.745,206.226"/>
<path fill="none" d="M20.745-156.12"/>
<path fill="none" d="M20.745-156.123"/>
<path fill="none" d="M20.745,206.228"/>
<path fill="none" d="M21.349,4314.958"/>
<path fill="none" d="M21.349-206.462"/>
<path fill="none" d="M21.349,4314.958"/>
<path fill="none" d="M21.349-206.462"/>
<path fill="none" d="M21.349,4314.958"/>
<path fill="none" d="M21.349-206.462"/>
<path fill="none" d="M21.349,4314.958"/>
<path fill="none" d="M21.349-206.462"/>
<path fill="none" d="M21.349,4314.958"/>
<path fill="none" d="M21.349-206.462"/>
<path fill="none" d="M21.349,4314.958"/>
<path fill="none" d="M21.349-206.462"/>
<path fill="none" d="M21.349,4314.958"/>
<path fill="none" d="M21.349-206.462"/>
<path fill="none" d="M21.349,4314.958"/>
<path fill="none" d="M21.349-206.462"/>
<path fill="none" d="M21.349,4314.958"/>
<path fill="none" d="M21.349-206.462"/>
<path fill="none" stroke="#D8D8D8" stroke-width="0.75" stroke-miterlimit="10" d="M-250.181-2048.831"/>
<path fill="none" d="M21.349,4314.958"/>
<path fill="none" d="M21.349-206.462"/>
<path fill="none" d="M21.349,4314.958"/>
<path fill="none" d="M21.349-206.462"/>
<path fill="none" d="M21.349,4314.958"/>
<path fill="none" d="M21.349-206.462"/>
<path fill="none" d="M21.349,4314.958"/>
<path fill="none" d="M21.349-206.462"/>
<path fill="none" d="M21.349,4314.958"/>
<path fill="none" d="M21.349-206.462"/>
<path fill="none" d="M21.349,4314.958"/>
<path fill="none" d="M21.349-206.462"/>
<path fill="none" d="M21.349,4314.958"/>
<path fill="none" d="M21.349-206.462"/>
<path fill="none" d="M21.349,4314.958"/>
<path fill="none" d="M21.349-206.462"/>
<path fill="none" d="M21.349,4314.958"/>
<path fill="none" d="M21.349-206.462"/>
<path fill="none" d="M21.349,4314.958"/>
<path fill="none" d="M21.349-206.462"/>
<path fill="none" d="M21.349,4314.958"/>
<path fill="none" d="M21.349-206.462"/>
<path fill="none" d="M21.349,4314.958"/>
<path fill="none" d="M21.349-206.462"/>
<path fill="none" d="M21.349,4314.958"/>
<path fill="none" d="M21.349-206.462"/>
<path fill="none" d="M21.349,4314.958"/>
<path fill="none" d="M21.349-206.462"/>
<path fill="none" d="M21.349,4314.958"/>
<path fill="none" d="M21.349-206.462"/>
<path fill="none" d="M21.349,4314.958"/>
<path fill="none" d="M21.349-206.462"/>
<path fill="none" stroke="#D8D8D8" stroke-width="0.75" stroke-miterlimit="10" d="M-250.181-2048.831"/>
<path fill="none" d="M21.349,4314.958"/>
<path fill="none" d="M21.349-206.462"/>
<path fill="none" d="M21.349,4314.958"/>
<path fill="none" d="M21.349-206.462"/>
<path fill="none" d="M21.349,4314.958"/>
<path fill="none" d="M21.349-206.462"/>
<path fill="none" d="M21.349,4314.958"/>
<path fill="none" d="M21.349-206.462"/>
<path fill="#606060" d="M21.349-206.462"/>
<path fill="#606060" d="M21.349,4314.958"/>
<path fill="#606060" d="M21.348,4314.958"/>
<path fill="#606060" d="M21.348-206.462"/>
<path fill="#606060" d="M21.349-206.462"/>
<path fill="#606060" d="M21.349,4314.958"/>
<line fill="#606060" x1="69.349" y1="4314.958" x2="69.349" y2="-206.462"/>
<line fill="#606060" x1="75.348" y1="-206.462" x2="75.348" y2="4314.958"/>
<path fill="#606060" d="M22.349-206.462"/>
<path fill="#606060" d="M22.349,4314.958"/>
<path fill="none" d="M401-2245.667"/>
<path fill="none" d="M401,2275.753"/>
<polygon fill="#F3931F" points="11.95,3.286 18.648,0.221 15.677,7.262 19.569,5.191 13.688,17.78 14.186,10.657 12.116,11.817 "/>
</svg>
