<?xml version="1.0" encoding="utf-8"?>
<!-- Generator: Adobe Illustrator 16.0.3, SVG Export Plug-In . SVG Version: 6.00 Build 0)  -->
<!DOCTYPE svg PUBLIC "-//W3C//DTD SVG 1.1//EN" "http://www.w3.org/Graphics/SVG/1.1/DTD/svg11.dtd">
<svg version="1.1" id="Capa_1" xmlns="http://www.w3.org/2000/svg" xmlns:xlink="http://www.w3.org/1999/xlink" x="0px" y="0px"
	 width="9.542px" height="9.819px" viewBox="0 0 9.542 9.819" enable-background="new 0 0 9.542 9.819" xml:space="preserve">
<line fill="none" x1="-44.197" y1="4885.19" x2="-44.197" y2="-430.578"/>
<line fill="none" x1="-44.197" y1="4885.19" x2="-44.197" y2="-430.578"/>
<line fill="none" x1="-44.197" y1="4885.19" x2="-44.197" y2="-430.578"/>
<line fill="none" x1="-44.197" y1="4885.19" x2="-44.197" y2="-430.578"/>
<line fill="none" x1="-44.197" y1="4885.19" x2="-44.197" y2="-430.578"/>
<line fill="none" x1="-44.197" y1="4885.19" x2="-44.197" y2="-430.578"/>
<line fill="none" x1="-44.197" y1="4885.19" x2="-44.197" y2="-430.578"/>
<line fill="none" x1="-44.197" y1="4885.19" x2="-44.197" y2="-430.578"/>
<line fill="none" x1="-44.197" y1="4885.19" x2="-44.197" y2="-430.578"/>
<line fill="none" x1="-44.197" y1="4885.19" x2="-44.197" y2="-430.578"/>
<line fill="none" x1="-44.197" y1="4885.19" x2="-44.197" y2="-430.578"/>
<line fill="none" x1="-44.197" y1="4885.19" x2="-44.197" y2="-430.578"/>
<line fill="none" x1="-44.197" y1="4885.19" x2="-44.197" y2="-430.578"/>
<line fill="none" x1="-44.197" y1="4885.19" x2="-44.197" y2="-430.578"/>
<line fill="none" x1="-44.197" y1="4885.19" x2="-44.197" y2="-430.578"/>
<line fill="none" x1="-44.197" y1="4885.19" x2="-44.197" y2="-430.578"/>
<line fill="none" x1="-44.197" y1="4885.19" x2="-44.197" y2="-430.578"/>
<line fill="none" x1="-44.197" y1="4885.19" x2="-44.197" y2="-430.578"/>
<line fill="none" x1="-44.197" y1="4885.19" x2="-44.197" y2="-430.578"/>
<line fill="none" x1="-44.197" y1="4885.19" x2="-44.197" y2="-430.578"/>
<line fill="none" x1="-44.197" y1="4885.19" x2="-44.197" y2="-430.578"/>
<line fill="none" x1="-44.197" y1="4885.19" x2="-44.197" y2="-430.578"/>
<line fill="none" x1="-44.197" y1="4885.19" x2="-44.197" y2="-430.578"/>
<line fill="none" x1="-44.197" y1="4885.19" x2="-44.197" y2="-430.578"/>
<line fill="none" x1="-44.197" y1="4885.19" x2="-44.197" y2="-430.578"/>
<line fill="none" x1="-44.197" y1="4885.19" x2="-44.197" y2="-430.578"/>
<line fill="none" x1="-44.197" y1="4885.19" x2="-44.197" y2="-430.578"/>
<line fill="none" x1="-44.197" y1="4885.19" x2="-44.197" y2="-430.578"/>
<line fill="none" x1="-44.197" y1="4885.19" x2="-44.197" y2="-430.578"/>
<line fill="none" x1="-44.197" y1="4885.19" x2="-44.197" y2="-430.578"/>
<line fill="none" x1="-44.197" y1="4885.19" x2="-44.197" y2="-430.578"/>
<line fill="none" stroke="#999999" stroke-miterlimit="10" x1="2" y1="2" x2="7.528" y2="7.528"/>
<line fill="none" stroke="#999999" stroke-miterlimit="10" x1="7.528" y1="2" x2="2.001" y2="7.528"/>
<line fill="none" x1="-44.197" y1="4885.19" x2="-44.197" y2="-430.578"/>
<line fill="none" x1="-44.197" y1="4885.19" x2="-44.197" y2="-430.578"/>
<path fill="none" d="M-47-2641.999"/>
<path fill="none" d="M-47,2673.77"/>
</svg>
