<?xml version="1.0" encoding="utf-8"?>
<!-- Generator: Adobe Illustrator 16.0.3, SVG Export Plug-In . SVG Version: 6.00 Build 0)  -->
<!DOCTYPE svg PUBLIC "-//W3C//DTD SVG 1.1//EN" "http://www.w3.org/Graphics/SVG/1.1/DTD/svg11.dtd">
<svg version="1.1" id="Capa_1" xmlns="http://www.w3.org/2000/svg" xmlns:xlink="http://www.w3.org/1999/xlink" x="0px" y="0px"
	 width="17.476px" height="16.826px" viewBox="-1.408 -0.713 17.476 16.826" enable-background="new -1.408 -0.713 17.476 16.826"
	 xml:space="preserve">
<g>
	<g>
		<defs>
			<rect id="SVGID_1_" x="0" y="0" width="16.068" height="16.113"/>
		</defs>
		<clipPath id="SVGID_2_">
			<use xlink:href="#SVGID_1_"  overflow="visible"/>
		</clipPath>
		<path clip-path="url(#SVGID_2_)" d="M15.897,15.25L12,11.353c1.046-1.202,1.68-2.77,1.68-4.483c0-3.773-3.069-6.84-6.839-6.84
			c-3.773,0-6.839,3.069-6.839,6.84s3.067,6.839,6.839,6.839c1.715,0,3.282-0.633,4.484-1.68l3.897,3.897
			c0.091,0.093,0.216,0.143,0.338,0.143c0.12,0,0.245-0.047,0.337-0.143C16.083,15.742,16.083,15.435,15.897,15.25 M0.958,6.869
			c0-3.244,2.64-5.88,5.879-5.88c3.243,0,5.879,2.64,5.879,5.88c0,3.239-2.636,5.882-5.879,5.882
			C3.597,12.75,0.958,10.112,0.958,6.869"/>
	</g>
</g>
</svg>
