<?xml version="1.0" encoding="utf-8"?>
<!-- Generator: Adobe Illustrator 16.0.3, SVG Export Plug-In . SVG Version: 6.00 Build 0)  -->
<!DOCTYPE svg PUBLIC "-//W3C//DTD SVG 1.1//EN" "http://www.w3.org/Graphics/SVG/1.1/DTD/svg11.dtd">
<svg version="1.1" id="Capa_1" xmlns="http://www.w3.org/2000/svg" xmlns:xlink="http://www.w3.org/1999/xlink" x="0px" y="0px"
	 width="61.302px" height="67.001px" viewBox="-18.424 -24.777 61.302 67.001"
	 enable-background="new -18.424 -24.777 61.302 67.001" xml:space="preserve">
<line fill="#FFFFFF" x1="-371.133" y1="-586.111" x2="-371.133" y2="3935.311"/>
<line fill="#FFFFFF" x1="-371.133" y1="-586.111" x2="-371.133" y2="3935.311"/>
<line fill="none" x1="-371.133" y1="3935.311" x2="-371.133" y2="-586.11"/>
<line fill="none" x1="-371.133" y1="3935.311" x2="-371.133" y2="-586.11"/>
<line fill="none" x1="-371.133" y1="3935.311" x2="-371.133" y2="-586.11"/>
<line fill="none" x1="-371.133" y1="3935.311" x2="-371.133" y2="-586.11"/>
<line fill="none" x1="-371.133" y1="3935.311" x2="-371.133" y2="-586.11"/>
<line fill="none" x1="-371.133" y1="3935.311" x2="-371.133" y2="-586.11"/>
<line fill="none" x1="-371.133" y1="3935.311" x2="-371.133" y2="-586.11"/>
<line fill="none" x1="-371.133" y1="3935.311" x2="-371.133" y2="-586.11"/>
<line fill="none" x1="-371.133" y1="3935.311" x2="-371.133" y2="-586.11"/>
<line fill="none" x1="-371.133" y1="3935.311" x2="-371.133" y2="-586.11"/>
<line fill="none" x1="-371.133" y1="3935.311" x2="-371.133" y2="-586.11"/>
<line fill="none" x1="-371.133" y1="3935.311" x2="-371.133" y2="-586.11"/>
<line fill="none" x1="-371.133" y1="3935.311" x2="-371.133" y2="-586.11"/>
<line fill="none" x1="-371.133" y1="3935.311" x2="-371.133" y2="-586.11"/>
<line fill="none" x1="-371.133" y1="3935.311" x2="-371.133" y2="-586.11"/>
<line fill="none" x1="-371.133" y1="3935.311" x2="-371.133" y2="-586.11"/>
<line fill="none" x1="-371.133" y1="3935.311" x2="-371.133" y2="-586.11"/>
<line fill="none" x1="-371.133" y1="3935.311" x2="-371.133" y2="-586.11"/>
<line fill="none" x1="-374.127" y1="-592.436" x2="-374.127" y2="-77.225"/>
<line fill="none" x1="-371.133" y1="-525.326" x2="-371.133" y2="-189.326"/>
<defs>
	<filter id="Adobe_OpacityMaskFilter" filterUnits="userSpaceOnUse" x="-371.736" y="-535.767" width="0" height="362.345">
		<feColorMatrix  type="matrix" values="1 0 0 0 0  0 1 0 0 0  0 0 1 0 0  0 0 0 1 0"/>
	</filter>
</defs>
<mask maskUnits="userSpaceOnUse" x="-371.736" y="-535.767" width="0" height="362.345" id="SVGID_1_">
	<g filter="url(#Adobe_OpacityMaskFilter)">
		
			<linearGradient id="SVGID_2_" gradientUnits="userSpaceOnUse" x1="-375.4714" y1="2270.7268" x2="-374.4714" y2="2270.7268" gradientTransform="matrix(-768 0 0 768 -287965.9063 -1744273.25)">
			<stop  offset="0" style="stop-color:#000000"/>
			<stop  offset="1" style="stop-color:#FFFFFF"/>
		</linearGradient>
		<rect x="-371.736" y="-535.767" fill="url(#SVGID_2_)" width="768" height="362.345"/>
	</g>
</mask>
<linearGradient id="SVGID_3_" gradientUnits="userSpaceOnUse" x1="-374.4714" y1="2270.7268" x2="-374.4714" y2="2270.7268" gradientTransform="matrix(-768 0 0 768 -287965.9063 -1744273.25)">
	<stop  offset="0" style="stop-color:#FFFFFF"/>
	<stop  offset="1" style="stop-color:#000000"/>
</linearGradient>
<line mask="url(#SVGID_1_)" fill="url(#SVGID_3_)" x1="-371.736" y1="-173.422" x2="-371.736" y2="-535.767"/>
<line fill="none" x1="-371.736" y1="-173.422" x2="-371.736" y2="-535.767"/>
<line fill="none" x1="-371.736" y1="-535.77" x2="-371.736" y2="-173.42"/>
<line fill="none" x1="-371.133" y1="-525.326" x2="-371.133" y2="-189.326"/>
<line fill="none" x1="-371.133" y1="3935.311" x2="-371.133" y2="-586.11"/>
<line fill="none" x1="-371.133" y1="3935.311" x2="-371.133" y2="-586.11"/>
<line fill="none" x1="-371.133" y1="3935.311" x2="-371.133" y2="-586.11"/>
<line fill="none" x1="-371.133" y1="3935.311" x2="-371.133" y2="-586.11"/>
<line fill="none" x1="-371.133" y1="3935.311" x2="-371.133" y2="-586.11"/>
<line fill="none" x1="-371.133" y1="3935.311" x2="-371.133" y2="-586.11"/>
<line fill="none" x1="-371.133" y1="3935.311" x2="-371.133" y2="-586.11"/>
<path fill="none" stroke="#D8D8D8" stroke-width="0.75" stroke-miterlimit="10" d="M-371.133-285.491"/>
<path fill="none" stroke="#D8D8D8" stroke-width="0.75" stroke-miterlimit="10" d="M396.87-285.491"/>
<line fill="none" x1="-371.133" y1="3935.311" x2="-371.133" y2="-586.11"/>
<path fill="none" stroke="#D8D8D8" stroke-width="0.75" stroke-miterlimit="10" d="M-371.133-345.491"/>
<path fill="none" stroke="#D8D8D8" stroke-width="0.75" stroke-miterlimit="10" d="M396.87-345.491"/>
<line fill="none" x1="-371.133" y1="3935.311" x2="-371.133" y2="-586.11"/>
<line fill="none" x1="-371.133" y1="3935.311" x2="-371.133" y2="-586.11"/>
<line fill="none" x1="-371.133" y1="3935.311" x2="-371.133" y2="-586.11"/>
<line fill="none" x1="-371.133" y1="3935.311" x2="-371.133" y2="-586.11"/>
<line fill="none" x1="-371.133" y1="3935.311" x2="-371.133" y2="-586.11"/>
<line fill="none" x1="-371.133" y1="3935.311" x2="-371.133" y2="-586.11"/>
<line fill="none" x1="-371.133" y1="3935.311" x2="-371.133" y2="-586.11"/>
<line fill="none" x1="-371.133" y1="3935.311" x2="-371.133" y2="-586.11"/>
<line fill="none" x1="-371.133" y1="3935.311" x2="-371.133" y2="-586.11"/>
<line fill="none" x1="-371.133" y1="3935.311" x2="-371.133" y2="-586.11"/>
<path fill="none" stroke="#000000" stroke-width="1.75" stroke-miterlimit="10" d="M-193.677-238.853"/>
<path fill="none" stroke="#000000" stroke-width="1.75" stroke-miterlimit="10" d="M-182.473-238.853"/>
<path fill="none" stroke="#000000" stroke-width="1.75" stroke-linecap="round" stroke-miterlimit="10" d="M-175.792-239.274"/>
<path fill="none" stroke="#000000" stroke-width="1.75" stroke-linecap="round" stroke-miterlimit="10" d="M-164.589-239.154"/>
<path fill="none" stroke="#000000" stroke-width="1.75" stroke-miterlimit="10" d="M-187.648-238.551"/>
<path fill="none" stroke="#000000" stroke-width="1.75" stroke-miterlimit="10" d="M-187.529-282.463"/>
<path fill="none" stroke="#000000" stroke-width="1.75" stroke-miterlimit="10" d="M-169.746-238.551"/>
<path fill="none" stroke="#000000" stroke-width="1.75" stroke-miterlimit="10" d="M-169.867-282.463"/>
<line fill="none" x1="-371.133" y1="3935.311" x2="-371.133" y2="-586.11"/>
<line fill="#F2F2F2" x1="-371.133" y1="-375.492" x2="-371.133" y2="-247.813"/>
<line fill="none" x1="-371.133" y1="3935.311" x2="-371.133" y2="-586.11"/>
<line fill="none" x1="-371.133" y1="3935.311" x2="-371.133" y2="-586.11"/>
<line fill="none" x1="-371.133" y1="3935.311" x2="-371.133" y2="-586.11"/>
<line fill="none" x1="-371.133" y1="3935.311" x2="-371.133" y2="-586.11"/>
<line fill="none" x1="-371.133" y1="3935.311" x2="-371.133" y2="-586.11"/>
<line fill="none" x1="-371.133" y1="3935.311" x2="-371.133" y2="-586.11"/>
<line fill="none" x1="-371.133" y1="3935.311" x2="-371.133" y2="-586.11"/>
<line fill="none" x1="-371.133" y1="3935.311" x2="-371.133" y2="-586.11"/>
<line fill="none" x1="-371.133" y1="3935.311" x2="-371.133" y2="-586.11"/>
<path fill="#FFFFFF" d="M-243.133-247.814"/>
<path fill="#FFFFFF" d="M-243.133-375.492"/>
<line fill="#FFFFFF" x1="-371.133" y1="-247.814" x2="-371.133" y2="-375.492"/>
<path fill="#F2F2F2" d="M-243.133-375.492"/>
<path fill="#F2F2F2" d="M-243.133-247.814"/>
<line fill="none" x1="-371.133" y1="3935.311" x2="-371.133" y2="-586.11"/>
<line fill="#606060" x1="-371.133" y1="-586.11" x2="-371.133" y2="3935.311"/>
<line fill="#606060" x1="-371.133" y1="3935.311" x2="-371.133" y2="-586.11"/>
<line fill="#606060" x1="-371.133" y1="-586.11" x2="-371.133" y2="3935.311"/>
<line fill="#606060" x1="-371.133" y1="3935.311" x2="-371.133" y2="-586.11"/>
<line fill="#606060" x1="-371.133" y1="-586.11" x2="-371.133" y2="3935.311"/>
<path fill="#606060" d="M-371.133-586.11"/>
<path fill="#606060" d="M-371.133,3935.311"/>
<path fill="#606060" d="M-371.133,3935.311"/>
<path fill="#606060" d="M-371.133-586.11"/>
<path fill="#606060" d="M-371.133-586.11"/>
<path fill="#606060" d="M-371.133,3935.311"/>
<path fill="#606060" d="M-371.133,3935.311"/>
<path fill="#606060" d="M-371.133-586.11"/>
<path fill="#606060" d="M-371.133-586.11"/>
<path fill="#606060" d="M-371.133,3935.311"/>
<path fill="none" d="M-371.133,3935.311"/>
<path fill="none" d="M-371.133-586.11"/>
<path fill="#FFFFFF" d="M-548.133,2472.311"/>
<path fill="#FFFFFF" d="M-548.133-2049.111"/>
<path fill="#FFFFFF" d="M-548.133,2472.311"/>
<path fill="#FFFFFF" d="M-548.133-2049.111"/>
<path fill="none" d="M-548.133-2049.11"/>
<path fill="none" d="M-548.133,2472.311"/>
<path fill="none" d="M-548.133-2049.11"/>
<path fill="none" d="M-548.133,2472.311"/>
<path fill="none" d="M-548.133-2049.11"/>
<path fill="none" d="M-548.133,2472.311"/>
<path fill="none" d="M-548.133-2049.11"/>
<path fill="none" d="M-548.133,2472.311"/>
<path fill="none" d="M-548.133-2049.11"/>
<path fill="none" d="M-548.133,2472.311"/>
<path fill="none" d="M-548.133-2049.11"/>
<path fill="none" d="M-548.133,2472.311"/>
<path fill="none" d="M-548.133-2049.11"/>
<path fill="none" d="M-548.133,2472.311"/>
<path fill="none" d="M-548.133-2049.11"/>
<path fill="none" d="M-548.133,2472.311"/>
<path fill="none" d="M-548.133-2049.11"/>
<path fill="none" d="M-548.133,2472.311"/>
<path fill="none" d="M-548.133-2049.11"/>
<path fill="none" d="M-548.133,2472.311"/>
<path fill="none" d="M-548.133-2049.11"/>
<path fill="none" d="M-548.133,2472.311"/>
<path fill="none" d="M-548.133-2049.11"/>
<path fill="none" d="M-548.133,2472.311"/>
<path fill="none" d="M-548.133-2049.11"/>
<path fill="none" d="M-548.133,2472.311"/>
<path fill="none" d="M-548.133-2049.11"/>
<path fill="none" d="M-548.133,2472.311"/>
<path fill="none" d="M-548.133-2049.11"/>
<path fill="none" d="M-548.133,2472.311"/>
<path fill="none" d="M-548.133-2049.11"/>
<path fill="none" d="M-548.133,2472.311"/>
<path fill="none" d="M-548.133-2049.11"/>
<path fill="none" d="M-548.133,2472.311"/>
<path fill="none" d="M-548.133-2049.11"/>
<path fill="none" d="M-548.133,2472.311"/>
<path fill="none" d="M-551.127-1540.225"/>
<path fill="none" d="M-551.127-2055.436"/>
<path fill="none" d="M-548.133-1988.326"/>
<defs>
	<filter id="Adobe_OpacityMaskFilter_1_" filterUnits="userSpaceOnUse" x="-548.736" y="-1998.767" width="0" height="0">
		<feColorMatrix  type="matrix" values="1 0 0 0 0  0 1 0 0 0  0 0 1 0 0  0 0 0 1 0"/>
	</filter>
</defs>
<mask maskUnits="userSpaceOnUse" x="-548.736" y="-1998.767" width="0" height="0" id="SVGID_4_">
	<g filter="url(#Adobe_OpacityMaskFilter_1_)">
		
			<linearGradient id="SVGID_5_" gradientUnits="userSpaceOnUse" x1="-375.241" y1="2268.8225" x2="-374.241" y2="2268.8225" gradientTransform="matrix(-768 0 0 768 -287965.9063 -1744273.25)">
			<stop  offset="0" style="stop-color:#000000"/>
			<stop  offset="1" style="stop-color:#FFFFFF"/>
		</linearGradient>
		<rect x="-548.736" y="-1998.767" fill="url(#SVGID_5_)" width="768" height="362.345"/>
	</g>
</mask>
<linearGradient id="SVGID_6_" gradientUnits="userSpaceOnUse" x1="-374.241" y1="2268.5862" x2="-374.241" y2="2268.5862" gradientTransform="matrix(-768 0 0 768 -287965.9063 -1744273.25)">
	<stop  offset="0" style="stop-color:#FFFFFF"/>
	<stop  offset="1" style="stop-color:#000000"/>
</linearGradient>
<path mask="url(#SVGID_4_)" fill="url(#SVGID_6_)" d="M-548.736-1998.767"/>
<defs>
	<filter id="Adobe_OpacityMaskFilter_2_" filterUnits="userSpaceOnUse" x="-548.736" y="-1636.422" width="0" height="0">
		<feColorMatrix  type="matrix" values="1 0 0 0 0  0 1 0 0 0  0 0 1 0 0  0 0 0 1 0"/>
	</filter>
</defs>
<mask maskUnits="userSpaceOnUse" x="-548.736" y="-1636.422" width="0" height="0" id="SVGID_7_">
	<g filter="url(#Adobe_OpacityMaskFilter_2_)">
		
			<linearGradient id="SVGID_8_" gradientUnits="userSpaceOnUse" x1="-375.241" y1="2268.8225" x2="-374.241" y2="2268.8225" gradientTransform="matrix(-768 0 0 768 -287965.9063 -1744273.25)">
			<stop  offset="0" style="stop-color:#000000"/>
			<stop  offset="1" style="stop-color:#FFFFFF"/>
		</linearGradient>
		<rect x="-548.736" y="-1998.767" fill="url(#SVGID_8_)" width="768" height="362.345"/>
	</g>
</mask>
<linearGradient id="SVGID_9_" gradientUnits="userSpaceOnUse" x1="-374.241" y1="2269.0579" x2="-374.241" y2="2269.0579" gradientTransform="matrix(-768 0 0 768 -287965.9063 -1744273.25)">
	<stop  offset="0" style="stop-color:#FFFFFF"/>
	<stop  offset="1" style="stop-color:#000000"/>
</linearGradient>
<path mask="url(#SVGID_7_)" fill="url(#SVGID_9_)" d="M-548.736-1636.422"/>
<path fill="none" d="M-548.736-1998.767"/>
<path fill="none" d="M-548.736-1636.422"/>
<path fill="none" d="M-548.736-1636.42"/>
<path fill="none" d="M-548.736-1998.77"/>
<path fill="none" d="M-548.133-1988.326"/>
<path fill="none" d="M-548.133-2049.11"/>
<path fill="none" d="M-548.133,2472.311"/>
<path fill="none" d="M-548.133-2049.11"/>
<path fill="none" d="M-548.133,2472.311"/>
<path fill="none" d="M-548.133-2049.11"/>
<path fill="none" d="M-548.133,2472.311"/>
<path fill="none" d="M-548.133-2049.11"/>
<path fill="none" d="M-548.133,2472.311"/>
<path fill="none" d="M-548.133-2049.11"/>
<path fill="none" d="M-548.133,2472.311"/>
<path fill="#FFFFFF" d="M219.87-1748.491"/>
<path fill="none" d="M-548.133-2049.11"/>
<path fill="none" d="M-548.133,2472.311"/>
<path fill="#FFFFFF" d="M219.87-1808.491"/>
<path fill="#FFFFFF" d="M219.87-1748.491"/>
<path fill="none" d="M-548.133-2049.11"/>
<path fill="none" d="M-548.133,2472.311"/>
<path fill="none" stroke="#D8D8D8" stroke-width="0.75" stroke-miterlimit="10" d="M219.87-1748.491"/>
<path fill="none" d="M-548.133-2049.11"/>
<path fill="none" d="M-548.133,2472.311"/>
<path fill="none" stroke="#D8D8D8" stroke-width="0.75" stroke-miterlimit="10" d="M219.87-1808.491"/>
<path fill="none" d="M-548.133-2049.11"/>
<path fill="none" d="M-548.133,2472.311"/>
<path fill="none" d="M-548.133-2049.11"/>
<path fill="none" d="M-548.133,2472.311"/>
<path fill="none" d="M-548.133-2049.11"/>
<path fill="none" d="M-548.133,2472.311"/>
<path fill="none" d="M-548.133-2049.11"/>
<path fill="none" d="M-548.133,2472.311"/>
<path fill="none" d="M-548.133-2049.11"/>
<path fill="none" d="M-548.133,2472.311"/>
<path fill="none" d="M-548.133-2049.11"/>
<path fill="none" d="M-548.133,2472.311"/>
<path fill="none" d="M-548.133-2049.11"/>
<path fill="none" d="M-548.133,2472.311"/>
<path fill="none" d="M-548.133-2049.11"/>
<path fill="none" d="M-548.133,2472.311"/>
<path fill="none" d="M-548.133-2049.11"/>
<path fill="none" d="M-548.133,2472.311"/>
<path fill="none" d="M-548.133-2049.11"/>
<path fill="none" d="M-548.133,2472.311"/>
<path fill="none" stroke="#000000" stroke-width="1.75" stroke-miterlimit="10" d="M-49.451,56.29"/>
<path fill="none" d="M-548.133-2049.11"/>
<path fill="none" d="M-548.133,2472.311"/>
<path fill="none" d="M-548.133-2049.11"/>
<path fill="none" d="M-548.133,2472.311"/>
<path fill="none" d="M-548.133-2049.11"/>
<path fill="none" d="M-548.133,2472.311"/>
<path fill="none" d="M-548.133-2049.11"/>
<path fill="none" d="M-548.133,2472.311"/>
<path fill="none" d="M-548.133-2049.11"/>
<path fill="none" d="M-548.133,2472.311"/>
<path fill="none" d="M-548.133-2049.11"/>
<path fill="none" d="M-548.133,2472.311"/>
<path fill="none" d="M-548.133-2049.11"/>
<path fill="none" d="M-548.133,2472.311"/>
<path fill="none" d="M-548.133-2049.11"/>
<path fill="none" d="M-548.133,2472.311"/>
<path fill="none" d="M-548.133-2049.11"/>
<path fill="none" d="M-548.133,2472.311"/>
<path fill="none" d="M-548.133-2049.11"/>
<path fill="none" d="M-548.133,2472.311"/>
<path fill="none" d="M-548.133-2049.11"/>
<path fill="none" d="M-548.133,2472.311"/>
<path fill="#606060" d="M-548.133,2472.311"/>
<path fill="#606060" d="M-548.133-2049.11"/>
<path fill="#606060" d="M-548.133-2049.11"/>
<path fill="#606060" d="M-548.133,2472.311"/>
<path fill="#606060" d="M-548.133,2472.311"/>
<path fill="#606060" d="M-548.133-2049.11"/>
<path fill="#606060" d="M-548.133-2049.11"/>
<path fill="#606060" d="M-548.133,2472.311"/>
<path fill="#606060" d="M-548.133,2472.311"/>
<path fill="#606060" d="M-548.133-2049.11"/>
<path fill="#606060" d="M-548.133-2049.11"/>
<path fill="#606060" d="M-548.133,2472.311"/>
<path fill="#606060" d="M-548.133,2472.311"/>
<path fill="#606060" d="M-548.133-2049.11"/>
<path fill="#606060" d="M-548.133-2049.11"/>
<path fill="#606060" d="M-548.133,2472.311"/>
<path fill="#606060" d="M-548.133,2472.311"/>
<path fill="#606060" d="M-548.133-2049.11"/>
<path fill="#606060" d="M-548.133-2049.11"/>
<path fill="#606060" d="M-548.133,2472.311"/>
<path fill="none" d="M-548.133,2472.311"/>
<path fill="none" d="M-548.133-2049.11"/>
<path fill="#FFFFFF" d="M-490.133,2116.311"/>
<path fill="#FFFFFF" d="M-490.133-2405.111"/>
<path fill="#FFFFFF" d="M-490.133,2116.311"/>
<path fill="#FFFFFF" d="M-490.133-2405.111"/>
<path fill="none" d="M-490.133-2405.11"/>
<path fill="none" d="M-490.133,2116.311"/>
<path fill="none" d="M-490.133-2405.11"/>
<path fill="none" d="M-490.133,2116.311"/>
<path fill="none" d="M-490.133-2405.11"/>
<path fill="none" d="M-490.133,2116.311"/>
<path fill="none" d="M-490.133-2405.11"/>
<path fill="none" d="M-490.133,2116.311"/>
<path fill="none" d="M-490.133-2405.11"/>
<path fill="none" d="M-490.133,2116.311"/>
<path fill="none" d="M-490.133-2405.11"/>
<path fill="none" d="M-490.133,2116.311"/>
<path fill="none" d="M-490.133-2405.11"/>
<path fill="none" d="M-490.133,2116.311"/>
<path fill="none" d="M-490.133-2405.11"/>
<path fill="none" d="M-490.133,2116.311"/>
<path fill="none" d="M-490.133-2405.11"/>
<path fill="none" d="M-490.133,2116.311"/>
<path fill="none" d="M-490.133-2405.11"/>
<path fill="none" d="M-490.133,2116.311"/>
<path fill="none" d="M-490.133-2405.11"/>
<path fill="none" d="M-490.133,2116.311"/>
<path fill="none" d="M-490.133-2405.11"/>
<path fill="none" d="M-490.133,2116.311"/>
<path fill="none" d="M-490.133-2405.11"/>
<path fill="none" d="M-490.133,2116.311"/>
<path fill="none" d="M-490.133-2405.11"/>
<path fill="none" d="M-490.133,2116.311"/>
<path fill="none" d="M-490.133-2405.11"/>
<path fill="none" d="M-490.133,2116.311"/>
<path fill="none" d="M-490.133-2405.11"/>
<path fill="none" d="M-490.133,2116.311"/>
<path fill="none" d="M-490.133-2405.11"/>
<path fill="none" d="M-490.133,2116.311"/>
<path fill="#E6E6E6" d="M-453.907-1597.833"/>
<path fill="none" d="M-490.133-2405.11"/>
<path fill="none" d="M-490.133,2116.311"/>
<path fill="none" d="M-419.126-1614.059"/>
<path fill="none" d="M-432.698-1610.549"/>
<path fill="none" d="M-419.126-1614.059"/>
<path fill="none" d="M-493.127-2411.436"/>
<path fill="none" d="M277.264-2008.326"/>
<path fill="none" d="M-490.133-2344.326"/>
<defs>
	<filter id="Adobe_OpacityMaskFilter_3_" filterUnits="userSpaceOnUse" x="-490.736" y="-2354.767" width="0" height="0">
		<feColorMatrix  type="matrix" values="1 0 0 0 0  0 1 0 0 0  0 0 1 0 0  0 0 0 1 0"/>
	</filter>
</defs>
<mask maskUnits="userSpaceOnUse" x="-490.736" y="-2354.767" width="0" height="0" id="SVGID_10_">
	<g filter="url(#Adobe_OpacityMaskFilter_3_)">
		
			<linearGradient id="SVGID_11_" gradientUnits="userSpaceOnUse" x1="-375.3167" y1="2268.3596" x2="-374.3167" y2="2268.3596" gradientTransform="matrix(-768 0 0 768 -287965.9063 -1744273.25)">
			<stop  offset="0" style="stop-color:#000000"/>
			<stop  offset="1" style="stop-color:#FFFFFF"/>
		</linearGradient>
		<rect x="-490.736" y="-2354.767" fill="url(#SVGID_11_)" width="768" height="362.345"/>
	</g>
</mask>
<linearGradient id="SVGID_12_" gradientUnits="userSpaceOnUse" x1="-374.3167" y1="2268.1233" x2="-374.3167" y2="2268.1233" gradientTransform="matrix(-768 0 0 768 -287965.9063 -1744273.25)">
	<stop  offset="0" style="stop-color:#FFFFFF"/>
	<stop  offset="1" style="stop-color:#000000"/>
</linearGradient>
<path mask="url(#SVGID_10_)" fill="url(#SVGID_12_)" d="M-490.736-2354.767"/>
<defs>
	<filter id="Adobe_OpacityMaskFilter_4_" filterUnits="userSpaceOnUse" x="277.264" y="-1992.422" width="0" height="0">
		<feColorMatrix  type="matrix" values="1 0 0 0 0  0 1 0 0 0  0 0 1 0 0  0 0 0 1 0"/>
	</filter>
</defs>
<mask maskUnits="userSpaceOnUse" x="277.264" y="-1992.422" width="0" height="0" id="SVGID_13_">
	<g filter="url(#Adobe_OpacityMaskFilter_4_)">
		
			<linearGradient id="SVGID_14_" gradientUnits="userSpaceOnUse" x1="-375.3167" y1="2268.3596" x2="-374.3167" y2="2268.3596" gradientTransform="matrix(-768 0 0 768 -287965.9063 -1744273.25)">
			<stop  offset="0" style="stop-color:#000000"/>
			<stop  offset="1" style="stop-color:#FFFFFF"/>
		</linearGradient>
		<rect x="-490.736" y="-2354.767" fill="url(#SVGID_14_)" width="768" height="362.345"/>
	</g>
</mask>
<linearGradient id="SVGID_15_" gradientUnits="userSpaceOnUse" x1="-375.3167" y1="2268.595" x2="-375.3167" y2="2268.595" gradientTransform="matrix(-768 0 0 768 -287965.9063 -1744273.25)">
	<stop  offset="0" style="stop-color:#FFFFFF"/>
	<stop  offset="1" style="stop-color:#000000"/>
</linearGradient>
<path mask="url(#SVGID_13_)" fill="url(#SVGID_15_)" d="M277.264-1992.422"/>
<path fill="none" d="M-490.736-2354.767"/>
<path fill="none" d="M277.264-1992.422"/>
<path fill="none" d="M277.264-1992.42"/>
<path fill="none" d="M-490.736-2354.77"/>
<path fill="none" d="M277.264-2008.326"/>
<path fill="none" d="M-490.133-2344.326"/>
<path fill="none" d="M-490.133-2405.11"/>
<path fill="none" d="M-490.133,2116.311"/>
<path fill="none" d="M-490.133-2405.11"/>
<path fill="none" d="M-490.133,2116.311"/>
<path fill="none" d="M-490.133-2405.11"/>
<path fill="none" d="M-490.133,2116.311"/>
<path fill="#FFFFFF" d="M277.868-1924.491"/>
<path fill="none" d="M-490.133-2405.11"/>
<path fill="none" d="M-490.133,2116.311"/>
<path fill="#FFFFFF" d="M277.868-1924.49"/>
<path fill="#FFFFFF" d="M277.868-1984.49"/>
<path fill="none" stroke="#D8D8D8" stroke-width="0.75" stroke-miterlimit="10" d="M277.87-1924.491"/>
<path fill="none" d="M-490.133-2405.11"/>
<path fill="none" d="M-490.133,2116.311"/>
<path fill="#FFFFFF" d="M277.868-1984.49"/>
<path fill="none" stroke="#D8D8D8" stroke-width="0.75" stroke-miterlimit="10" d="M277.87-1984.491"/>
<path fill="none" d="M-490.133-2405.11"/>
<path fill="none" d="M-490.133,2116.311"/>
<path fill="none" d="M-490.133-2405.11"/>
<path fill="none" d="M-490.133,2116.311"/>
<path fill="none" d="M-490.133-2405.11"/>
<path fill="none" d="M-490.133,2116.311"/>
<path fill="none" d="M-490.133-2405.11"/>
<path fill="none" d="M-490.133,2116.311"/>
<path fill="none" d="M-490.133-2405.11"/>
<path fill="none" d="M-490.133,2116.311"/>
<path fill="none" d="M-490.133-2405.11"/>
<path fill="none" d="M-490.133,2116.311"/>
<path fill="none" d="M-490.133-2405.11"/>
<path fill="none" d="M-490.133,2116.311"/>
<path fill="none" d="M-490.133-2405.11"/>
<path fill="none" d="M-490.133,2116.311"/>
<path fill="none" d="M-490.133-2405.11"/>
<path fill="none" d="M-490.133,2116.311"/>
<path fill="#FFFFFF" d="M277.87-1909.136"/>
<path fill="#FFFFFF" d="M-490.133-1849.136"/>
<path fill="none" d="M-490.133-2405.11"/>
<path fill="none" d="M-490.133,2116.311"/>
<path fill="#FFFFFF" d="M277.87-1969.136"/>
<path fill="#FFFFFF" d="M277.87-1909.136"/>
<path fill="none" d="M-490.133-2405.11"/>
<path fill="none" d="M-490.133,2116.311"/>
<path fill="none" stroke="#D8D8D8" stroke-width="0.75" stroke-miterlimit="10" d="M277.87-1909.135"/>
<path fill="#FFFFFF" d="M277.87-1969.136"/>
<path fill="none" d="M-490.133-2405.11"/>
<path fill="none" d="M-490.133,2116.311"/>
<path fill="none" stroke="#D8D8D8" stroke-width="0.75" stroke-miterlimit="10" d="M277.87-1969.135"/>
<path fill="none" d="M-490.133-2405.11"/>
<path fill="none" d="M-490.133,2116.311"/>
<path fill="none" d="M-490.133-2405.11"/>
<path fill="none" d="M-490.133,2116.311"/>
<path fill="#F2F2F2" d="M277.866-1909.136"/>
<path fill="none" d="M-490.133-2405.11"/>
<path fill="none" d="M-490.133,2116.311"/>
<path fill="none" d="M-490.133-2405.11"/>
<path fill="none" d="M-490.133,2116.311"/>
<path fill="none" d="M-490.133-2405.11"/>
<path fill="none" d="M-490.133,2116.311"/>
<path fill="none" d="M-490.133-2405.11"/>
<path fill="none" d="M-490.133,2116.311"/>
<path fill="#FFFFFF" d="M277.87-1909.136"/>
<path fill="#FFFFFF" d="M-490.133-1849.136"/>
<path fill="none" d="M-490.133-2405.11"/>
<path fill="none" d="M-490.133,2116.311"/>
<path fill="none" d="M-490.133-2405.11"/>
<path fill="none" d="M-490.133,2116.311"/>
<path fill="none" d="M-490.133-2405.11"/>
<path fill="none" d="M-490.133,2116.311"/>
<path fill="none" d="M-490.133-2405.11"/>
<path fill="none" d="M-490.133,2116.311"/>
<path fill="none" d="M-490.133-2405.11"/>
<path fill="none" d="M-490.133,2116.311"/>
<path fill="none" stroke="#D8D8D8" stroke-width="0.75" stroke-miterlimit="10" d="M277.87-1909.135"/>
<path fill="none" d="M-490.133-2405.11"/>
<path fill="none" d="M-490.133,2116.311"/>
<path fill="#606060" d="M-490.133,2116.311"/>
<path fill="#606060" d="M-490.133-2405.11"/>
<path fill="#606060" d="M-490.133-2405.11"/>
<path fill="#606060" d="M-490.133,2116.311"/>
<path fill="#606060" d="M-490.133,2116.311"/>
<path fill="#606060" d="M-490.133-2405.11"/>
<path fill="#606060" d="M-490.133-2405.11"/>
<path fill="#606060" d="M-490.133,2116.311"/>
<path fill="#606060" d="M-490.133,2116.311"/>
<path fill="#606060" d="M-490.133-2405.11"/>
<path fill="#606060" d="M-490.133-2405.11"/>
<path fill="#606060" d="M-490.133,2116.311"/>
<path fill="#606060" d="M-490.133,2116.311"/>
<path fill="#606060" d="M-490.133-2405.11"/>
<path fill="#606060" d="M-490.133-2405.11"/>
<path fill="#606060" d="M-490.133,2116.311"/>
<path fill="#606060" d="M-490.133,2116.311"/>
<path fill="#606060" d="M-490.133-2405.11"/>
<path fill="#606060" d="M-490.133-2405.11"/>
<path fill="#606060" d="M-490.133,2116.311"/>
<path fill="none" d="M-490.133,2116.311"/>
<path fill="none" d="M-490.133-2405.11"/>
<path fill="#FFFFFF" d="M-333.424,2262.643"/>
<path fill="#FFFFFF" d="M-333.424-2258.778"/>
<path fill="#FFFFFF" d="M-333.424,2262.643"/>
<path fill="#FFFFFF" d="M-333.424-2258.778"/>
<path fill="none" d="M-333.424-2258.777"/>
<path fill="none" d="M-333.424,2262.643"/>
<path fill="none" d="M-333.424-2258.777"/>
<path fill="none" d="M-333.424,2262.643"/>
<path fill="none" d="M-333.424-2258.777"/>
<path fill="none" d="M-333.424,2262.643"/>
<path fill="none" d="M-333.424-2258.777"/>
<path fill="none" d="M-333.424,2262.643"/>
<path fill="none" d="M-333.424-2258.777"/>
<path fill="none" d="M-333.424,2262.643"/>
<path fill="none" d="M-333.424-2258.777"/>
<path fill="none" d="M-333.424,2262.643"/>
<path fill="none" d="M-333.424-2258.777"/>
<path fill="none" d="M-333.424,2262.643"/>
<path fill="none" d="M-333.424-2258.777"/>
<path fill="none" d="M-333.424,2262.643"/>
<path fill="none" d="M-333.424-2258.777"/>
<path fill="none" d="M-333.424,2262.643"/>
<path fill="none" d="M-333.424-2258.777"/>
<path fill="none" d="M-333.424,2262.643"/>
<path fill="none" d="M-333.424-2258.777"/>
<path fill="none" d="M-333.424,2262.643"/>
<path fill="none" d="M-333.424-2258.777"/>
<path fill="none" d="M-333.424,2262.643"/>
<path fill="none" d="M-333.424-2258.777"/>
<path fill="none" d="M-333.424,2262.643"/>
<path fill="none" d="M-333.424-2258.777"/>
<path fill="none" d="M-333.424,2262.643"/>
<path fill="none" d="M-333.424-2258.777"/>
<path fill="none" d="M-333.424,2262.643"/>
<path fill="none" d="M-333.424-2258.777"/>
<path fill="none" d="M-333.424,2262.643"/>
<path fill="none" d="M-333.424-2258.777"/>
<path fill="none" d="M-333.424,2262.643"/>
<path fill="#E6E6E6" d="M14.351-1451.5"/>
<path fill="#E6E6E6" d="M39.475,33.68"/>
<path fill="#E6E6E6" d="M-297.198-1451.5"/>
<path fill="none" d="M-333.424-2258.777"/>
<path fill="none" d="M-333.424,2262.643"/>
<path fill="none" d="M-262.417-1467.726"/>
<line fill="none" x1="-20.429" y1="-1467.726" x2="4.695" y2="49.906"/>
<path fill="none" d="M-275.989-1464.217"/>
<path fill="none" d="M144.677-48.229"/>
<path fill="none" d="M-5.262-1464.217"/>
<path fill="none" d="M-262.417-1467.726"/>
<path fill="none" d="M4.696,49.906"/>
<path fill="none" d="M-20.428-1467.726"/>
<path fill="none" d="M-336.418-2265.103"/>
<path fill="none" d="M433.973-1861.993"/>
<path fill="none" d="M-333.424-2197.993"/>
<path fill="none" d="M-334.027-2208.434"/>
<path fill="none" d="M433.973-1846.089"/>
<path fill="none" d="M433.973-1846.087"/>
<path fill="none" d="M-334.027-2208.437"/>
<path fill="none" d="M433.973-1861.993"/>
<path fill="none" d="M-333.424-2197.993"/>
<path fill="none" d="M-333.424-2258.777"/>
<path fill="none" d="M-333.424,2262.643"/>
<path fill="none" d="M-333.424-2258.777"/>
<path fill="none" d="M-333.424,2262.643"/>
<path fill="none" d="M-333.424-2258.777"/>
<path fill="none" d="M-333.424,2262.643"/>
<path fill="#FFFFFF" d="M434.577-1778.159"/>
<path fill="none" d="M-333.424-2258.777"/>
<path fill="none" d="M-333.424,2262.643"/>
<path fill="#FFFFFF" d="M434.577-1778.158"/>
<path fill="#FFFFFF" d="M434.577-1838.158"/>
<path fill="none" stroke="#D8D8D8" stroke-width="0.75" stroke-miterlimit="10" d="M434.579-1778.159"/>
<path fill="none" d="M-333.424-2258.777"/>
<path fill="none" d="M-333.424,2262.643"/>
<path fill="#FFFFFF" d="M434.577-1838.158"/>
<path fill="none" stroke="#D8D8D8" stroke-width="0.75" stroke-miterlimit="10" d="M434.579-1838.159"/>
<path fill="none" d="M-333.424-2258.777"/>
<path fill="none" d="M-333.424,2262.643"/>
<path fill="none" d="M-333.424-2258.777"/>
<path fill="none" d="M-333.424,2262.643"/>
<path fill="none" d="M-333.424-2258.777"/>
<path fill="none" d="M-333.424,2262.643"/>
<path fill="none" d="M-333.424-2258.777"/>
<path fill="none" d="M-333.424,2262.643"/>
<path fill="none" d="M-333.424-2258.777"/>
<path fill="none" d="M-333.424,2262.643"/>
<path fill="none" d="M-333.424-2258.777"/>
<path fill="none" d="M-333.424,2262.643"/>
<path fill="none" d="M-333.424-2258.777"/>
<path fill="none" d="M-333.424,2262.643"/>
<path fill="none" d="M-333.424-2258.777"/>
<path fill="none" d="M-333.424,2262.643"/>
<path fill="none" d="M-333.424-2258.777"/>
<path fill="none" d="M-333.424,2262.643"/>
<path fill="none" d="M-333.424-2258.777"/>
<path fill="none" d="M-333.424,2262.643"/>
<path fill="#FFFFFF" d="M434.579-1822.803"/>
<path fill="none" d="M-333.424-2258.777"/>
<path fill="none" d="M-333.424,2262.643"/>
<path fill="#FFFFFF" d="M434.579-1822.803"/>
<path fill="none" d="M-333.424-2258.777"/>
<path fill="none" d="M-333.424,2262.643"/>
<path fill="none" stroke="#D8D8D8" stroke-width="0.75" stroke-miterlimit="10" d="M434.579-1822.803"/>
<path fill="none" d="M-333.424-2258.777"/>
<path fill="none" d="M-333.424,2262.643"/>
<path fill="none" d="M-333.424-2258.777"/>
<path fill="none" d="M-333.424,2262.643"/>
<path fill="none" d="M-333.424-2258.777"/>
<path fill="none" d="M-333.424,2262.643"/>
<path fill="none" d="M-333.424-2258.777"/>
<path fill="none" d="M-333.424,2262.643"/>
<path fill="none" d="M-333.424-2258.777"/>
<path fill="none" d="M-333.424,2262.643"/>
<path fill="none" d="M-333.424-2258.777"/>
<path fill="none" d="M-333.424,2262.643"/>
<path fill="none" d="M-333.424-2258.777"/>
<path fill="none" d="M-333.424,2262.643"/>
<path fill="none" d="M-333.424-2258.777"/>
<path fill="none" d="M-333.424,2262.643"/>
<path fill="none" d="M-333.424-2258.777"/>
<path fill="none" d="M-333.424,2262.643"/>
<path fill="none" d="M-333.424-2258.777"/>
<path fill="none" d="M-333.424,2262.643"/>
<path fill="none" d="M-333.424-2258.777"/>
<path fill="none" d="M-333.424,2262.643"/>
<path fill="#FFFFFF" d="M200.516,59.273"/>
<path fill="#FFFFFF" d="M200.516-68.405"/>
<path fill="none" stroke="#000000" stroke-width="1.75" stroke-miterlimit="10" d="M12.651-19.771H6.532l-3.68,3.378
	c0,0-6.636,3.317-8.021,4.162c-1.389,0.844-8.145,7.901-7.842,43.37c0,0-0.12,0.844,0.965,1.025c1.086,0.18,6.816,0.121,6.816,0.121
	s0.832,0.119,0.988-0.967c0.158-1.086,1.364-32.692,1.364-32.692s0.36-6.816-2.051-10.193"/>
<path fill="none" stroke="#000000" stroke-width="1.75" stroke-miterlimit="10" d="M-5.05,31.983l0.062,4.584
	c0,0,0.181,1.268-1.388,1.268s-4.524-0.061-4.524-0.061s-1.257-0.348-1.206-1.326c0.061-1.146,0.061-4.283,0.061-4.283"/>
<path fill="none" stroke="#000000" stroke-width="1.75" stroke-miterlimit="10" d="M-4.241,26.071c0,0,1.063,2.232,6.49,2.414
	c5.43,0.182,9.711,0.182,9.711,0.182"/>
<path fill="none" stroke="#000000" stroke-width="1.75" stroke-miterlimit="10" d="M-1.671,27.76l0.181,4.041
	c0,0,0.181,1.207,3.257,1.389c3.077,0.182,8.928,0.422,10.074,0.422"/>
<line fill="none" stroke="#000000" stroke-width="1.75" stroke-miterlimit="10" x1="7.376" y1="28.424" x2="7.497" y2="33.612"/>
<path fill="none" stroke="#000000" stroke-width="1.75" stroke-miterlimit="10" d="M6.04-19.482c0,0,2.503,7.146,4.928,9.574
	c0.193,0.195,0.057,0.53-0.217,0.507c-2.557-0.222-5.529-1.778-7.898-6.992"/>
<line fill="none" stroke="#000000" stroke-width="1.75" stroke-miterlimit="10" x1="11.745" y1="-16.63" x2="7.28" y2="-16.568"/>
<path fill="none" stroke="#000000" stroke-width="1.75" stroke-miterlimit="10" d="M0.606,11.303l2.275,0.93
	c0.146,0.059,0.24,0.199,0.24,0.355v10.453c0,0.158-0.1,0.303-0.247,0.359l-2.446,0.941c-0.256,0.098-0.527-0.094-0.523-0.365
	l0.17-12.322C0.079,11.383,0.354,11.199,0.606,11.303z"/>
<path fill="none" stroke="#000000" stroke-width="1.75" stroke-miterlimit="10" d="M11.864-19.771h5.006l3.68,3.378
	c0,0,6.635,3.317,8.021,4.162c1.388,0.844,8.145,7.901,7.842,43.37c0,0,0.121,0.844-0.965,1.025
	c-1.086,0.18-6.815,0.121-6.815,0.121s-0.832,0.119-0.989-0.967C27.485,30.233,26.28-1.373,26.28-1.373s-0.362-6.816,2.051-10.193"
	/>
<path fill="none" stroke="#000000" stroke-width="1.75" stroke-miterlimit="10" d="M28.45,31.983l-0.06,4.584
	c0,0-0.181,1.268,1.388,1.268s4.525-0.061,4.525-0.061s1.256-0.348,1.205-1.326c-0.061-1.146-0.061-4.283-0.061-4.283"/>
<path fill="none" stroke="#000000" stroke-width="1.75" stroke-miterlimit="10" d="M27.643,26.071c0,0-1.063,2.232-6.49,2.414
	c-5.43,0.182-9.712,0.182-9.712,0.182"/>
<path fill="none" stroke="#000000" stroke-width="1.75" stroke-miterlimit="10" d="M25.073,27.76l-0.182,4.041
	c0,0-0.18,1.207-3.257,1.389c-3.075,0.182-8.927,0.422-10.073,0.422"/>
<line fill="none" stroke="#000000" stroke-width="1.75" stroke-miterlimit="10" x1="16.024" y1="28.424" x2="15.905" y2="33.612"/>
<path fill="none" stroke="#000000" stroke-width="1.75" stroke-miterlimit="10" d="M17.362-19.482c0,0-2.504,7.146-4.928,9.574
	c-0.193,0.195-0.058,0.53,0.217,0.507c2.556-0.222,5.529-1.778,7.898-6.992"/>
<line fill="none" stroke="#000000" stroke-width="1.75" stroke-miterlimit="10" x1="11.658" y1="-16.63" x2="16.123" y2="-16.568"/>
<path fill="none" stroke="#000000" stroke-width="1.75" stroke-miterlimit="10" d="M22.796,11.303l-2.275,0.93
	c-0.145,0.059-0.24,0.199-0.24,0.355v10.453c0,0.158,0.098,0.303,0.246,0.359l2.448,0.941c0.254,0.098,0.526-0.094,0.522-0.365
	l-0.17-12.322C23.323,11.383,23.048,11.199,22.796,11.303z"/>
<line fill="none" stroke="#000000" stroke-width="1.75" stroke-miterlimit="10" x1="11.719" y1="-9.758" x2="11.719" y2="32.826"/>
<path fill="none" d="M-333.424-2258.777"/>
<path fill="none" d="M-333.424,2262.643"/>
<path fill="#606060" d="M-333.424,2262.643"/>
<path fill="#606060" d="M-333.424-2258.777"/>
<path fill="#606060" d="M-333.424-2258.777"/>
<path fill="#606060" d="M-333.424,2262.643"/>
<path fill="#606060" d="M-333.424,2262.643"/>
<path fill="#606060" d="M-333.424-2258.777"/>
<path fill="#606060" d="M-333.424-2258.777"/>
<path fill="#606060" d="M-333.424,2262.643"/>
<path fill="#606060" d="M-333.424,2262.643"/>
<path fill="#606060" d="M-333.424-2258.777"/>
<path fill="#606060" d="M-333.424-2258.777"/>
<path fill="#606060" d="M-333.424,2262.643"/>
<path fill="#606060" d="M-333.424,2262.643"/>
<path fill="#606060" d="M-333.424-2258.777"/>
<path fill="#606060" d="M-333.424-2258.777"/>
<path fill="#606060" d="M-333.424,2262.643"/>
<path fill="#606060" d="M-333.424,2262.643"/>
<path fill="#606060" d="M-333.424-2258.777"/>
<path fill="#606060" d="M-333.424-2258.777"/>
<path fill="#606060" d="M-333.424,2262.643"/>
<path fill="none" d="M-333.424,2262.643"/>
<path fill="none" d="M-333.424-2258.777"/>
</svg>
