<?xml version="1.0" encoding="utf-8"?>
<!-- Generator: Adobe Illustrator 16.0.3, SVG Export Plug-In . SVG Version: 6.00 Build 0)  -->
<!DOCTYPE svg PUBLIC "-//W3C//DTD SVG 1.1//EN" "http://www.w3.org/Graphics/SVG/1.1/DTD/svg11.dtd">
<svg version="1.1" id="Capa_1" xmlns="http://www.w3.org/2000/svg" xmlns:xlink="http://www.w3.org/1999/xlink" x="0px" y="0px"
	 width="61.302px" height="67.001px" viewBox="-18.424 -24.777 61.302 67.001"
	 enable-background="new -18.424 -24.777 61.302 67.001" xml:space="preserve">
<line fill="#FFFFFF" x1="-371.133" y1="-586.111" x2="-371.133" y2="3935.311"/>
<line fill="#FFFFFF" x1="-371.133" y1="-586.111" x2="-371.133" y2="3935.311"/>
<line fill="none" x1="-371.133" y1="3935.311" x2="-371.133" y2="-586.11"/>
<line fill="none" x1="-371.133" y1="3935.311" x2="-371.133" y2="-586.11"/>
<line fill="none" x1="-371.133" y1="3935.311" x2="-371.133" y2="-586.11"/>
<line fill="none" x1="-371.133" y1="3935.311" x2="-371.133" y2="-586.11"/>
<line fill="none" x1="-371.133" y1="3935.311" x2="-371.133" y2="-586.11"/>
<line fill="none" x1="-371.133" y1="3935.311" x2="-371.133" y2="-586.11"/>
<line fill="none" x1="-371.133" y1="3935.311" x2="-371.133" y2="-586.11"/>
<line fill="none" x1="-371.133" y1="3935.311" x2="-371.133" y2="-586.11"/>
<line fill="none" x1="-371.133" y1="3935.311" x2="-371.133" y2="-586.11"/>
<line fill="none" x1="-371.133" y1="3935.311" x2="-371.133" y2="-586.11"/>
<line fill="none" x1="-371.133" y1="3935.311" x2="-371.133" y2="-586.11"/>
<line fill="none" x1="-371.133" y1="3935.311" x2="-371.133" y2="-586.11"/>
<line fill="none" x1="-371.133" y1="3935.311" x2="-371.133" y2="-586.11"/>
<line fill="none" x1="-371.133" y1="3935.311" x2="-371.133" y2="-586.11"/>
<line fill="none" x1="-371.133" y1="3935.311" x2="-371.133" y2="-586.11"/>
<line fill="none" x1="-371.133" y1="3935.311" x2="-371.133" y2="-586.11"/>
<line fill="none" x1="-371.133" y1="3935.311" x2="-371.133" y2="-586.11"/>
<line fill="none" x1="-371.133" y1="3935.311" x2="-371.133" y2="-586.11"/>
<line fill="none" x1="-374.127" y1="-592.436" x2="-374.127" y2="-77.225"/>
<line fill="none" x1="-371.133" y1="-525.326" x2="-371.133" y2="-189.326"/>
<defs>
	<filter id="Adobe_OpacityMaskFilter" filterUnits="userSpaceOnUse" x="-371.736" y="-535.767" width="0" height="362.345">
		<feColorMatrix  type="matrix" values="1 0 0 0 0  0 1 0 0 0  0 0 1 0 0  0 0 0 1 0"/>
	</filter>
</defs>
<mask maskUnits="userSpaceOnUse" x="-371.736" y="-535.767" width="0" height="362.345" id="SVGID_1_">
	<g filter="url(#Adobe_OpacityMaskFilter)">
		
			<linearGradient id="SVGID_2_" gradientUnits="userSpaceOnUse" x1="-375.4714" y1="2270.7268" x2="-374.4714" y2="2270.7268" gradientTransform="matrix(-768 0 0 768 -287965.9063 -1744273.25)">
			<stop  offset="0" style="stop-color:#000000"/>
			<stop  offset="1" style="stop-color:#FFFFFF"/>
		</linearGradient>
		<rect x="-371.736" y="-535.767" fill="url(#SVGID_2_)" width="768" height="362.345"/>
	</g>
</mask>
<linearGradient id="SVGID_3_" gradientUnits="userSpaceOnUse" x1="-374.4714" y1="2270.7268" x2="-374.4714" y2="2270.7268" gradientTransform="matrix(-768 0 0 768 -287965.9063 -1744273.25)">
	<stop  offset="0" style="stop-color:#FFFFFF"/>
	<stop  offset="1" style="stop-color:#000000"/>
</linearGradient>
<line mask="url(#SVGID_1_)" fill="url(#SVGID_3_)" x1="-371.736" y1="-173.422" x2="-371.736" y2="-535.767"/>
<line fill="none" x1="-371.736" y1="-173.422" x2="-371.736" y2="-535.767"/>
<line fill="none" x1="-371.736" y1="-535.77" x2="-371.736" y2="-173.42"/>
<line fill="none" x1="-371.133" y1="-525.326" x2="-371.133" y2="-189.326"/>
<line fill="none" x1="-371.133" y1="3935.311" x2="-371.133" y2="-586.11"/>
<line fill="none" x1="-371.133" y1="3935.311" x2="-371.133" y2="-586.11"/>
<line fill="none" x1="-371.133" y1="3935.311" x2="-371.133" y2="-586.11"/>
<line fill="none" x1="-371.133" y1="3935.311" x2="-371.133" y2="-586.11"/>
<line fill="none" x1="-371.133" y1="3935.311" x2="-371.133" y2="-586.11"/>
<line fill="none" x1="-371.133" y1="3935.311" x2="-371.133" y2="-586.11"/>
<line fill="none" x1="-371.133" y1="3935.311" x2="-371.133" y2="-586.11"/>
<path fill="none" stroke="#D8D8D8" stroke-width="0.75" stroke-miterlimit="10" d="M-371.133-285.491"/>
<path fill="none" stroke="#D8D8D8" stroke-width="0.75" stroke-miterlimit="10" d="M396.87-285.491"/>
<line fill="none" x1="-371.133" y1="3935.311" x2="-371.133" y2="-586.11"/>
<path fill="none" stroke="#D8D8D8" stroke-width="0.75" stroke-miterlimit="10" d="M-371.133-345.491"/>
<path fill="none" stroke="#D8D8D8" stroke-width="0.75" stroke-miterlimit="10" d="M396.87-345.491"/>
<line fill="none" x1="-371.133" y1="3935.311" x2="-371.133" y2="-586.11"/>
<line fill="none" x1="-371.133" y1="3935.311" x2="-371.133" y2="-586.11"/>
<line fill="none" x1="-371.133" y1="3935.311" x2="-371.133" y2="-586.11"/>
<line fill="none" x1="-371.133" y1="3935.311" x2="-371.133" y2="-586.11"/>
<line fill="none" x1="-371.133" y1="3935.311" x2="-371.133" y2="-586.11"/>
<line fill="none" x1="-371.133" y1="3935.311" x2="-371.133" y2="-586.11"/>
<line fill="none" x1="-371.133" y1="3935.311" x2="-371.133" y2="-586.11"/>
<line fill="none" x1="-371.133" y1="3935.311" x2="-371.133" y2="-586.11"/>
<line fill="none" x1="-371.133" y1="3935.311" x2="-371.133" y2="-586.11"/>
<line fill="none" x1="-371.133" y1="3935.311" x2="-371.133" y2="-586.11"/>
<path fill="none" stroke="#000000" stroke-width="1.75" stroke-miterlimit="10" d="M-193.677-238.853"/>
<path fill="none" stroke="#000000" stroke-width="1.75" stroke-miterlimit="10" d="M-182.473-238.853"/>
<path fill="none" stroke="#000000" stroke-width="1.75" stroke-linecap="round" stroke-miterlimit="10" d="M-175.792-239.274"/>
<path fill="none" stroke="#000000" stroke-width="1.75" stroke-linecap="round" stroke-miterlimit="10" d="M-164.589-239.154"/>
<path fill="none" stroke="#000000" stroke-width="1.75" stroke-miterlimit="10" d="M-187.648-238.551"/>
<path fill="none" stroke="#000000" stroke-width="1.75" stroke-miterlimit="10" d="M-187.529-282.463"/>
<path fill="none" stroke="#000000" stroke-width="1.75" stroke-miterlimit="10" d="M-169.746-238.551"/>
<path fill="none" stroke="#000000" stroke-width="1.75" stroke-miterlimit="10" d="M-169.867-282.463"/>
<line fill="none" x1="-371.133" y1="3935.311" x2="-371.133" y2="-586.11"/>
<line fill="#F2F2F2" x1="-371.133" y1="-375.492" x2="-371.133" y2="-247.813"/>
<line fill="none" x1="-371.133" y1="3935.311" x2="-371.133" y2="-586.11"/>
<line fill="none" x1="-371.133" y1="3935.311" x2="-371.133" y2="-586.11"/>
<line fill="none" x1="-371.133" y1="3935.311" x2="-371.133" y2="-586.11"/>
<line fill="none" x1="-371.133" y1="3935.311" x2="-371.133" y2="-586.11"/>
<line fill="none" x1="-371.133" y1="3935.311" x2="-371.133" y2="-586.11"/>
<line fill="none" x1="-371.133" y1="3935.311" x2="-371.133" y2="-586.11"/>
<line fill="none" x1="-371.133" y1="3935.311" x2="-371.133" y2="-586.11"/>
<line fill="none" x1="-371.133" y1="3935.311" x2="-371.133" y2="-586.11"/>
<line fill="none" x1="-371.133" y1="3935.311" x2="-371.133" y2="-586.11"/>
<path fill="#FFFFFF" d="M-243.133-247.814"/>
<path fill="#FFFFFF" d="M-243.133-375.492"/>
<line fill="#FFFFFF" x1="-371.133" y1="-247.814" x2="-371.133" y2="-375.492"/>
<path fill="#F2F2F2" d="M-243.133-375.492"/>
<path fill="#F2F2F2" d="M-243.133-247.814"/>
<line fill="none" x1="-371.133" y1="3935.311" x2="-371.133" y2="-586.11"/>
<line fill="#606060" x1="-371.133" y1="-586.11" x2="-371.133" y2="3935.311"/>
<line fill="#606060" x1="-371.133" y1="3935.311" x2="-371.133" y2="-586.11"/>
<line fill="#606060" x1="-371.133" y1="-586.11" x2="-371.133" y2="3935.311"/>
<line fill="#606060" x1="-371.133" y1="3935.311" x2="-371.133" y2="-586.11"/>
<line fill="#606060" x1="-371.133" y1="-586.11" x2="-371.133" y2="3935.311"/>
<path fill="#606060" d="M-371.133-586.11"/>
<path fill="#606060" d="M-371.133,3935.311"/>
<path fill="#606060" d="M-371.133,3935.311"/>
<path fill="#606060" d="M-371.133-586.11"/>
<path fill="#606060" d="M-371.133-586.11"/>
<path fill="#606060" d="M-371.133,3935.311"/>
<path fill="#606060" d="M-371.133,3935.311"/>
<path fill="#606060" d="M-371.133-586.11"/>
<path fill="#606060" d="M-371.133-586.11"/>
<path fill="#606060" d="M-371.133,3935.311"/>
<path fill="none" d="M-371.133,3935.311"/>
<path fill="none" d="M-371.133-586.11"/>
<path fill="#FFFFFF" d="M-548.133,2472.311"/>
<path fill="#FFFFFF" d="M-548.133-2049.111"/>
<path fill="#FFFFFF" d="M-548.133,2472.311"/>
<path fill="#FFFFFF" d="M-548.133-2049.111"/>
<path fill="none" d="M-548.133-2049.11"/>
<path fill="none" d="M-548.133,2472.311"/>
<path fill="none" d="M-548.133-2049.11"/>
<path fill="none" d="M-548.133,2472.311"/>
<path fill="none" d="M-548.133-2049.11"/>
<path fill="none" d="M-548.133,2472.311"/>
<path fill="none" d="M-548.133-2049.11"/>
<path fill="none" d="M-548.133,2472.311"/>
<path fill="none" d="M-548.133-2049.11"/>
<path fill="none" d="M-548.133,2472.311"/>
<path fill="none" d="M-548.133-2049.11"/>
<path fill="none" d="M-548.133,2472.311"/>
<path fill="none" d="M-548.133-2049.11"/>
<path fill="none" d="M-548.133,2472.311"/>
<path fill="none" d="M-548.133-2049.11"/>
<path fill="none" d="M-548.133,2472.311"/>
<path fill="none" d="M-548.133-2049.11"/>
<path fill="none" d="M-548.133,2472.311"/>
<path fill="none" d="M-548.133-2049.11"/>
<path fill="none" d="M-548.133,2472.311"/>
<path fill="none" d="M-548.133-2049.11"/>
<path fill="none" d="M-548.133,2472.311"/>
<path fill="none" d="M-548.133-2049.11"/>
<path fill="none" d="M-548.133,2472.311"/>
<path fill="none" d="M-548.133-2049.11"/>
<path fill="none" d="M-548.133,2472.311"/>
<path fill="none" d="M-548.133-2049.11"/>
<path fill="none" d="M-548.133,2472.311"/>
<path fill="none" d="M-548.133-2049.11"/>
<path fill="none" d="M-548.133,2472.311"/>
<path fill="none" d="M-548.133-2049.11"/>
<path fill="none" d="M-548.133,2472.311"/>
<path fill="none" d="M-548.133-2049.11"/>
<path fill="none" d="M-548.133,2472.311"/>
<path fill="none" d="M-548.133-2049.11"/>
<path fill="none" d="M-548.133,2472.311"/>
<path fill="none" d="M-551.127-1540.225"/>
<path fill="none" d="M-551.127-2055.436"/>
<path fill="none" d="M-548.133-1988.326"/>
<defs>
	<filter id="Adobe_OpacityMaskFilter_1_" filterUnits="userSpaceOnUse" x="-548.736" y="-1998.767" width="0" height="0">
		<feColorMatrix  type="matrix" values="1 0 0 0 0  0 1 0 0 0  0 0 1 0 0  0 0 0 1 0"/>
	</filter>
</defs>
<mask maskUnits="userSpaceOnUse" x="-548.736" y="-1998.767" width="0" height="0" id="SVGID_4_">
	<g filter="url(#Adobe_OpacityMaskFilter_1_)">
		
			<linearGradient id="SVGID_5_" gradientUnits="userSpaceOnUse" x1="-375.241" y1="2268.8225" x2="-374.241" y2="2268.8225" gradientTransform="matrix(-768 0 0 768 -287965.9063 -1744273.25)">
			<stop  offset="0" style="stop-color:#000000"/>
			<stop  offset="1" style="stop-color:#FFFFFF"/>
		</linearGradient>
		<rect x="-548.736" y="-1998.767" fill="url(#SVGID_5_)" width="768" height="362.345"/>
	</g>
</mask>
<linearGradient id="SVGID_6_" gradientUnits="userSpaceOnUse" x1="-374.241" y1="2268.5862" x2="-374.241" y2="2268.5862" gradientTransform="matrix(-768 0 0 768 -287965.9063 -1744273.25)">
	<stop  offset="0" style="stop-color:#FFFFFF"/>
	<stop  offset="1" style="stop-color:#000000"/>
</linearGradient>
<path mask="url(#SVGID_4_)" fill="url(#SVGID_6_)" d="M-548.736-1998.767"/>
<defs>
	<filter id="Adobe_OpacityMaskFilter_2_" filterUnits="userSpaceOnUse" x="-548.736" y="-1636.422" width="0" height="0">
		<feColorMatrix  type="matrix" values="1 0 0 0 0  0 1 0 0 0  0 0 1 0 0  0 0 0 1 0"/>
	</filter>
</defs>
<mask maskUnits="userSpaceOnUse" x="-548.736" y="-1636.422" width="0" height="0" id="SVGID_7_">
	<g filter="url(#Adobe_OpacityMaskFilter_2_)">
		
			<linearGradient id="SVGID_8_" gradientUnits="userSpaceOnUse" x1="-375.241" y1="2268.8225" x2="-374.241" y2="2268.8225" gradientTransform="matrix(-768 0 0 768 -287965.9063 -1744273.25)">
			<stop  offset="0" style="stop-color:#000000"/>
			<stop  offset="1" style="stop-color:#FFFFFF"/>
		</linearGradient>
		<rect x="-548.736" y="-1998.767" fill="url(#SVGID_8_)" width="768" height="362.345"/>
	</g>
</mask>
<linearGradient id="SVGID_9_" gradientUnits="userSpaceOnUse" x1="-374.241" y1="2269.0579" x2="-374.241" y2="2269.0579" gradientTransform="matrix(-768 0 0 768 -287965.9063 -1744273.25)">
	<stop  offset="0" style="stop-color:#FFFFFF"/>
	<stop  offset="1" style="stop-color:#000000"/>
</linearGradient>
<path mask="url(#SVGID_7_)" fill="url(#SVGID_9_)" d="M-548.736-1636.422"/>
<path fill="none" d="M-548.736-1998.767"/>
<path fill="none" d="M-548.736-1636.422"/>
<path fill="none" d="M-548.736-1636.42"/>
<path fill="none" d="M-548.736-1998.77"/>
<path fill="none" d="M-548.133-1988.326"/>
<path fill="none" d="M-548.133-2049.11"/>
<path fill="none" d="M-548.133,2472.311"/>
<path fill="none" d="M-548.133-2049.11"/>
<path fill="none" d="M-548.133,2472.311"/>
<path fill="none" d="M-548.133-2049.11"/>
<path fill="none" d="M-548.133,2472.311"/>
<path fill="none" d="M-548.133-2049.11"/>
<path fill="none" d="M-548.133,2472.311"/>
<path fill="none" d="M-548.133-2049.11"/>
<path fill="none" d="M-548.133,2472.311"/>
<path fill="none" d="M-548.133-2049.11"/>
<path fill="none" d="M-548.133,2472.311"/>
<path fill="none" d="M-548.133-2049.11"/>
<path fill="none" d="M-548.133,2472.311"/>
<path fill="none" d="M-548.133-2049.11"/>
<path fill="none" d="M-548.133,2472.311"/>
<path fill="none" d="M-548.133-2049.11"/>
<path fill="none" d="M-548.133,2472.311"/>
<path fill="none" d="M-548.133-2049.11"/>
<path fill="none" d="M-548.133,2472.311"/>
<path fill="none" d="M-548.133-2049.11"/>
<path fill="none" d="M-548.133,2472.311"/>
<path fill="none" d="M-548.133-2049.11"/>
<path fill="none" d="M-548.133,2472.311"/>
<path fill="none" d="M-548.133-2049.11"/>
<path fill="none" d="M-548.133,2472.311"/>
<path fill="none" d="M-548.133-2049.11"/>
<path fill="none" d="M-548.133,2472.311"/>
<path fill="none" d="M-548.133-2049.11"/>
<path fill="none" d="M-548.133,2472.311"/>
<path fill="none" d="M-548.133-2049.11"/>
<path fill="none" d="M-548.133,2472.311"/>
<path fill="none" d="M-548.133-2049.11"/>
<path fill="none" d="M-548.133,2472.311"/>
<path fill="none" d="M-548.133-2049.11"/>
<path fill="none" d="M-548.133,2472.311"/>
<path fill="none" stroke="#000000" stroke-width="1.75" stroke-miterlimit="10" d="M-49.451,56.29"/>
<path fill="none" d="M-548.133-2049.11"/>
<path fill="none" d="M-548.133,2472.311"/>
<path fill="none" d="M-548.133-2049.11"/>
<path fill="none" d="M-548.133,2472.311"/>
<path fill="none" d="M-548.133-2049.11"/>
<path fill="none" d="M-548.133,2472.311"/>
<path fill="none" d="M-548.133-2049.11"/>
<path fill="none" d="M-548.133,2472.311"/>
<path fill="none" d="M-548.133-2049.11"/>
<path fill="none" d="M-548.133,2472.311"/>
<path fill="none" d="M-548.133-2049.11"/>
<path fill="none" d="M-548.133,2472.311"/>
<path fill="none" d="M-548.133-2049.11"/>
<path fill="none" d="M-548.133,2472.311"/>
<path fill="none" d="M-548.133-2049.11"/>
<path fill="none" d="M-548.133,2472.311"/>
<path fill="none" d="M-548.133-2049.11"/>
<path fill="none" d="M-548.133,2472.311"/>
<path fill="none" d="M-548.133-2049.11"/>
<path fill="none" d="M-548.133,2472.311"/>
<path fill="none" d="M-548.133-2049.11"/>
<path fill="none" d="M-548.133,2472.311"/>
<path fill="#606060" d="M-548.133,2472.311"/>
<path fill="#606060" d="M-548.133-2049.11"/>
<path fill="#606060" d="M-548.133-2049.11"/>
<path fill="#606060" d="M-548.133,2472.311"/>
<path fill="#606060" d="M-548.133,2472.311"/>
<path fill="#606060" d="M-548.133-2049.11"/>
<path fill="#606060" d="M-548.133-2049.11"/>
<path fill="#606060" d="M-548.133,2472.311"/>
<path fill="#606060" d="M-548.133,2472.311"/>
<path fill="#606060" d="M-548.133-2049.11"/>
<path fill="#606060" d="M-548.133-2049.11"/>
<path fill="#606060" d="M-548.133,2472.311"/>
<path fill="#606060" d="M-548.133,2472.311"/>
<path fill="#606060" d="M-548.133-2049.11"/>
<path fill="#606060" d="M-548.133-2049.11"/>
<path fill="#606060" d="M-548.133,2472.311"/>
<path fill="#606060" d="M-548.133,2472.311"/>
<path fill="#606060" d="M-548.133-2049.11"/>
<path fill="#606060" d="M-548.133-2049.11"/>
<path fill="#606060" d="M-548.133,2472.311"/>
<path fill="none" d="M-548.133,2472.311"/>
<path fill="none" d="M-548.133-2049.11"/>
<path fill="#FFFFFF" d="M-490.133,2116.311"/>
<path fill="#FFFFFF" d="M-490.133-2405.111"/>
<path fill="#FFFFFF" d="M-490.133,2116.311"/>
<path fill="#FFFFFF" d="M-490.133-2405.111"/>
<path fill="none" d="M-490.133-2405.11"/>
<path fill="none" d="M-490.133,2116.311"/>
<path fill="none" d="M-490.133-2405.11"/>
<path fill="none" d="M-490.133,2116.311"/>
<path fill="none" d="M-490.133-2405.11"/>
<path fill="none" d="M-490.133,2116.311"/>
<path fill="none" d="M-490.133-2405.11"/>
<path fill="none" d="M-490.133,2116.311"/>
<path fill="none" d="M-490.133-2405.11"/>
<path fill="none" d="M-490.133,2116.311"/>
<path fill="none" d="M-490.133-2405.11"/>
<path fill="none" d="M-490.133,2116.311"/>
<path fill="none" d="M-490.133-2405.11"/>
<path fill="none" d="M-490.133,2116.311"/>
<path fill="none" d="M-490.133-2405.11"/>
<path fill="none" d="M-490.133,2116.311"/>
<path fill="none" d="M-490.133-2405.11"/>
<path fill="none" d="M-490.133,2116.311"/>
<path fill="none" d="M-490.133-2405.11"/>
<path fill="none" d="M-490.133,2116.311"/>
<path fill="none" d="M-490.133-2405.11"/>
<path fill="none" d="M-490.133,2116.311"/>
<path fill="none" d="M-490.133-2405.11"/>
<path fill="none" d="M-490.133,2116.311"/>
<path fill="none" d="M-490.133-2405.11"/>
<path fill="none" d="M-490.133,2116.311"/>
<path fill="none" d="M-490.133-2405.11"/>
<path fill="none" d="M-490.133,2116.311"/>
<path fill="none" d="M-490.133-2405.11"/>
<path fill="none" d="M-490.133,2116.311"/>
<path fill="none" d="M-490.133-2405.11"/>
<path fill="none" d="M-490.133,2116.311"/>
<path fill="none" d="M-490.133-2405.11"/>
<path fill="none" d="M-490.133,2116.311"/>
<path fill="#E6E6E6" d="M-453.907-1597.833"/>
<path fill="none" d="M-490.133-2405.11"/>
<path fill="none" d="M-490.133,2116.311"/>
<path fill="none" d="M-419.126-1614.059"/>
<path fill="none" d="M-432.698-1610.549"/>
<path fill="none" d="M-419.126-1614.059"/>
<path fill="none" d="M-493.127-2411.436"/>
<path fill="none" d="M-490.133-2344.326"/>
<defs>
	<filter id="Adobe_OpacityMaskFilter_3_" filterUnits="userSpaceOnUse" x="-490.736" y="-2354.767" width="0" height="0">
		<feColorMatrix  type="matrix" values="1 0 0 0 0  0 1 0 0 0  0 0 1 0 0  0 0 0 1 0"/>
	</filter>
</defs>
<mask maskUnits="userSpaceOnUse" x="-490.736" y="-2354.767" width="0" height="0" id="SVGID_10_">
	<g filter="url(#Adobe_OpacityMaskFilter_3_)">
		
			<linearGradient id="SVGID_11_" gradientUnits="userSpaceOnUse" x1="-375.3167" y1="2268.3596" x2="-374.3167" y2="2268.3596" gradientTransform="matrix(-768 0 0 768 -287965.9063 -1744273.25)">
			<stop  offset="0" style="stop-color:#000000"/>
			<stop  offset="1" style="stop-color:#FFFFFF"/>
		</linearGradient>
		<rect x="-490.736" y="-2354.767" fill="url(#SVGID_11_)" width="768" height="362.345"/>
	</g>
</mask>
<linearGradient id="SVGID_12_" gradientUnits="userSpaceOnUse" x1="-374.3167" y1="2268.1233" x2="-374.3167" y2="2268.1233" gradientTransform="matrix(-768 0 0 768 -287965.9063 -1744273.25)">
	<stop  offset="0" style="stop-color:#FFFFFF"/>
	<stop  offset="1" style="stop-color:#000000"/>
</linearGradient>
<path mask="url(#SVGID_10_)" fill="url(#SVGID_12_)" d="M-490.736-2354.767"/>
<path fill="none" d="M-490.736-2354.767"/>
<path fill="none" d="M-490.736-2354.77"/>
<path fill="none" d="M-490.133-2344.326"/>
<path fill="none" d="M-490.133-2405.11"/>
<path fill="none" d="M-490.133,2116.311"/>
<path fill="none" d="M-490.133-2405.11"/>
<path fill="none" d="M-490.133,2116.311"/>
<path fill="none" d="M-490.133-2405.11"/>
<path fill="none" d="M-490.133,2116.311"/>
<path fill="none" d="M-490.133-2405.11"/>
<path fill="none" d="M-490.133,2116.311"/>
<path fill="none" d="M-490.133-2405.11"/>
<path fill="none" d="M-490.133,2116.311"/>
<path fill="none" d="M-490.133-2405.11"/>
<path fill="none" d="M-490.133,2116.311"/>
<path fill="none" d="M-490.133-2405.11"/>
<path fill="none" d="M-490.133,2116.311"/>
<path fill="none" d="M-490.133-2405.11"/>
<path fill="none" d="M-490.133,2116.311"/>
<path fill="none" d="M-490.133-2405.11"/>
<path fill="none" d="M-490.133,2116.311"/>
<path fill="none" d="M-490.133-2405.11"/>
<path fill="none" d="M-490.133,2116.311"/>
<path fill="none" d="M-490.133-2405.11"/>
<path fill="none" d="M-490.133,2116.311"/>
<path fill="none" d="M-490.133-2405.11"/>
<path fill="none" d="M-490.133,2116.311"/>
<path fill="none" d="M-490.133-2405.11"/>
<path fill="none" d="M-490.133,2116.311"/>
<path fill="none" d="M-490.133-2405.11"/>
<path fill="none" d="M-490.133,2116.311"/>
<path fill="#FFFFFF" d="M-490.133-1849.136"/>
<path fill="none" d="M-490.133-2405.11"/>
<path fill="none" d="M-490.133,2116.311"/>
<path fill="none" d="M-490.133-2405.11"/>
<path fill="none" d="M-490.133,2116.311"/>
<path fill="none" d="M-490.133-2405.11"/>
<path fill="none" d="M-490.133,2116.311"/>
<path fill="none" d="M-490.133-2405.11"/>
<path fill="none" d="M-490.133,2116.311"/>
<path fill="none" d="M-490.133-2405.11"/>
<path fill="none" d="M-490.133,2116.311"/>
<path fill="none" d="M-490.133-2405.11"/>
<path fill="none" d="M-490.133,2116.311"/>
<path fill="none" d="M-490.133-2405.11"/>
<path fill="none" d="M-490.133,2116.311"/>
<path fill="none" d="M-490.133-2405.11"/>
<path fill="none" d="M-490.133,2116.311"/>
<path fill="none" d="M-490.133-2405.11"/>
<path fill="none" d="M-490.133,2116.311"/>
<path fill="#FFFFFF" d="M-490.133-1849.136"/>
<path fill="none" d="M-490.133-2405.11"/>
<path fill="none" d="M-490.133,2116.311"/>
<path fill="none" d="M-490.133-2405.11"/>
<path fill="none" d="M-490.133,2116.311"/>
<path fill="none" d="M-490.133-2405.11"/>
<path fill="none" d="M-490.133,2116.311"/>
<path fill="none" d="M-490.133-2405.11"/>
<path fill="none" d="M-490.133,2116.311"/>
<path fill="none" d="M-490.133-2405.11"/>
<path fill="none" d="M-490.133,2116.311"/>
<path fill="none" d="M-490.133-2405.11"/>
<path fill="none" d="M-490.133,2116.311"/>
<path fill="#606060" d="M-490.133,2116.311"/>
<path fill="#606060" d="M-490.133-2405.11"/>
<path fill="#606060" d="M-490.133-2405.11"/>
<path fill="#606060" d="M-490.133,2116.311"/>
<path fill="#606060" d="M-490.133,2116.311"/>
<path fill="#606060" d="M-490.133-2405.11"/>
<path fill="#606060" d="M-490.133-2405.11"/>
<path fill="#606060" d="M-490.133,2116.311"/>
<path fill="#606060" d="M-490.133,2116.311"/>
<path fill="#606060" d="M-490.133-2405.11"/>
<path fill="#606060" d="M-490.133-2405.11"/>
<path fill="#606060" d="M-490.133,2116.311"/>
<path fill="#606060" d="M-490.133,2116.311"/>
<path fill="#606060" d="M-490.133-2405.11"/>
<path fill="#606060" d="M-490.133-2405.11"/>
<path fill="#606060" d="M-490.133,2116.311"/>
<path fill="#606060" d="M-490.133,2116.311"/>
<path fill="#606060" d="M-490.133-2405.11"/>
<path fill="#606060" d="M-490.133-2405.11"/>
<path fill="#606060" d="M-490.133,2116.311"/>
<path fill="none" d="M-490.133,2116.311"/>
<path fill="none" d="M-490.133-2405.11"/>
<path fill="#FFFFFF" d="M-333.424,2262.643"/>
<path fill="#FFFFFF" d="M-333.424-2258.778"/>
<path fill="#FFFFFF" d="M-333.424,2262.643"/>
<path fill="#FFFFFF" d="M-333.424-2258.778"/>
<path fill="none" d="M-333.424-2258.777"/>
<path fill="none" d="M-333.424,2262.643"/>
<path fill="none" d="M-333.424-2258.777"/>
<path fill="none" d="M-333.424,2262.643"/>
<path fill="none" d="M-333.424-2258.777"/>
<path fill="none" d="M-333.424,2262.643"/>
<path fill="none" d="M-333.424-2258.777"/>
<path fill="none" d="M-333.424,2262.643"/>
<path fill="none" d="M-333.424-2258.777"/>
<path fill="none" d="M-333.424,2262.643"/>
<path fill="none" d="M-333.424-2258.777"/>
<path fill="none" d="M-333.424,2262.643"/>
<path fill="none" d="M-333.424-2258.777"/>
<path fill="none" d="M-333.424,2262.643"/>
<path fill="none" d="M-333.424-2258.777"/>
<path fill="none" d="M-333.424,2262.643"/>
<path fill="none" d="M-333.424-2258.777"/>
<path fill="none" d="M-333.424,2262.643"/>
<path fill="none" d="M-333.424-2258.777"/>
<path fill="none" d="M-333.424,2262.643"/>
<path fill="none" d="M-333.424-2258.777"/>
<path fill="none" d="M-333.424,2262.643"/>
<path fill="none" d="M-333.424-2258.777"/>
<path fill="none" d="M-333.424,2262.643"/>
<path fill="none" d="M-333.424-2258.777"/>
<path fill="none" d="M-333.424,2262.643"/>
<path fill="none" d="M-333.424-2258.777"/>
<path fill="none" d="M-333.424,2262.643"/>
<path fill="none" d="M-333.424-2258.777"/>
<path fill="none" d="M-333.424,2262.643"/>
<path fill="none" d="M-333.424-2258.777"/>
<path fill="none" d="M-333.424,2262.643"/>
<path fill="none" d="M-333.424-2258.777"/>
<path fill="none" d="M-333.424,2262.643"/>
<path fill="#E6E6E6" d="M-297.198-1451.5"/>
<path fill="none" d="M-333.424-2258.777"/>
<path fill="none" d="M-333.424,2262.643"/>
<path fill="none" d="M-262.417-1467.726"/>
<path fill="none" d="M-275.989-1464.217"/>
<path fill="none" d="M144.677-48.229"/>
<path fill="none" d="M-262.417-1467.726"/>
<path fill="none" d="M-336.418-2265.103"/>
<path fill="none" d="M-333.424-2197.993"/>
<path fill="none" d="M-334.027-2208.434"/>
<path fill="none" d="M-334.027-2208.437"/>
<path fill="none" d="M-333.424-2197.993"/>
<path fill="none" d="M-333.424-2258.777"/>
<path fill="none" d="M-333.424,2262.643"/>
<path fill="none" d="M-333.424-2258.777"/>
<path fill="none" d="M-333.424,2262.643"/>
<path fill="none" d="M-333.424-2258.777"/>
<path fill="none" d="M-333.424,2262.643"/>
<path fill="none" d="M-333.424-2258.777"/>
<path fill="none" d="M-333.424,2262.643"/>
<path fill="none" d="M-333.424-2258.777"/>
<path fill="none" d="M-333.424,2262.643"/>
<path fill="none" d="M-333.424-2258.777"/>
<path fill="none" d="M-333.424,2262.643"/>
<path fill="none" d="M-333.424-2258.777"/>
<path fill="none" d="M-333.424,2262.643"/>
<path fill="none" d="M-333.424-2258.777"/>
<path fill="none" d="M-333.424,2262.643"/>
<path fill="none" d="M-333.424-2258.777"/>
<path fill="none" d="M-333.424,2262.643"/>
<path fill="none" d="M-333.424-2258.777"/>
<path fill="none" d="M-333.424,2262.643"/>
<path fill="none" d="M-333.424-2258.777"/>
<path fill="none" d="M-333.424,2262.643"/>
<path fill="none" d="M-333.424-2258.777"/>
<path fill="none" d="M-333.424,2262.643"/>
<path fill="none" d="M-333.424-2258.777"/>
<path fill="none" d="M-333.424,2262.643"/>
<path fill="none" d="M-333.424-2258.777"/>
<path fill="none" d="M-333.424,2262.643"/>
<path fill="none" d="M-333.424-2258.777"/>
<path fill="none" d="M-333.424,2262.643"/>
<path fill="none" d="M-333.424-2258.777"/>
<path fill="none" d="M-333.424,2262.643"/>
<path fill="none" d="M-333.424-2258.777"/>
<path fill="none" d="M-333.424,2262.643"/>
<path fill="none" d="M-333.424-2258.777"/>
<path fill="none" d="M-333.424,2262.643"/>
<path fill="none" d="M-333.424-2258.777"/>
<path fill="none" d="M-333.424,2262.643"/>
<path fill="none" d="M-333.424-2258.777"/>
<path fill="none" d="M-333.424,2262.643"/>
<path fill="none" d="M-333.424-2258.777"/>
<path fill="none" d="M-333.424,2262.643"/>
<path fill="none" d="M-333.424-2258.777"/>
<path fill="none" d="M-333.424,2262.643"/>
<path fill="none" d="M-333.424-2258.777"/>
<path fill="none" d="M-333.424,2262.643"/>
<path fill="none" d="M-333.424-2258.777"/>
<path fill="none" d="M-333.424,2262.643"/>
<path fill="none" d="M-333.424-2258.777"/>
<path fill="none" d="M-333.424,2262.643"/>
<path fill="none" d="M-333.424-2258.777"/>
<path fill="none" d="M-333.424,2262.643"/>
<path fill="none" d="M-333.424-2258.777"/>
<path fill="none" d="M-333.424,2262.643"/>
<path fill="none" d="M-333.424-2258.777"/>
<path fill="none" d="M-333.424,2262.643"/>
<path fill="#FFFFFF" d="M200.516,59.273"/>
<path fill="#FFFFFF" d="M200.516-68.405"/>
<path fill="none" d="M-333.424-2258.777"/>
<path fill="none" d="M-333.424,2262.643"/>
<path fill="#606060" d="M-333.424,2262.643"/>
<path fill="#606060" d="M-333.424-2258.777"/>
<path fill="#606060" d="M-333.424-2258.777"/>
<path fill="#606060" d="M-333.424,2262.643"/>
<path fill="#606060" d="M-333.424,2262.643"/>
<path fill="#606060" d="M-333.424-2258.777"/>
<path fill="#606060" d="M-333.424-2258.777"/>
<path fill="#606060" d="M-333.424,2262.643"/>
<path fill="#606060" d="M-333.424,2262.643"/>
<path fill="#606060" d="M-333.424-2258.777"/>
<path fill="#606060" d="M-333.424-2258.777"/>
<path fill="#606060" d="M-333.424,2262.643"/>
<path fill="#606060" d="M-333.424,2262.643"/>
<path fill="#606060" d="M-333.424-2258.777"/>
<path fill="#606060" d="M-333.424-2258.777"/>
<path fill="#606060" d="M-333.424,2262.643"/>
<path fill="#606060" d="M-333.424,2262.643"/>
<path fill="#606060" d="M-333.424-2258.777"/>
<path fill="#606060" d="M-333.424-2258.777"/>
<path fill="#606060" d="M-333.424,2262.643"/>
<path fill="none" d="M-333.424,2262.643"/>
<path fill="none" d="M-333.424-2258.777"/>
<line fill="#FFFFFF" x1="-51.613" y1="-423.174" x2="-51.613" y2="4098.247"/>
<line fill="#FFFFFF" x1="-51.613" y1="-423.174" x2="-51.613" y2="4098.247"/>
<line fill="none" x1="-51.613" y1="4098.247" x2="-51.613" y2="-423.173"/>
<line fill="none" x1="-51.613" y1="4098.247" x2="-51.613" y2="-423.173"/>
<line fill="none" x1="-51.613" y1="4098.247" x2="-51.613" y2="-423.173"/>
<line fill="none" x1="-51.613" y1="4098.247" x2="-51.613" y2="-423.173"/>
<line fill="none" x1="-51.613" y1="4098.247" x2="-51.613" y2="-423.173"/>
<line fill="none" x1="-51.613" y1="4098.247" x2="-51.613" y2="-423.173"/>
<line fill="none" x1="-51.613" y1="4098.247" x2="-51.613" y2="-423.173"/>
<line fill="none" x1="-51.613" y1="4098.247" x2="-51.613" y2="-423.173"/>
<line fill="none" x1="-51.613" y1="4098.247" x2="-51.613" y2="-423.173"/>
<line fill="none" x1="-51.613" y1="4098.247" x2="-51.613" y2="-423.173"/>
<line fill="none" x1="-51.613" y1="4098.247" x2="-51.613" y2="-423.173"/>
<line fill="none" x1="-51.613" y1="4098.247" x2="-51.613" y2="-423.173"/>
<line fill="none" x1="-51.613" y1="4098.247" x2="-51.613" y2="-423.173"/>
<line fill="none" x1="-51.613" y1="4098.247" x2="-51.613" y2="-423.173"/>
<line fill="none" x1="-51.613" y1="4098.247" x2="-51.613" y2="-423.173"/>
<line fill="none" x1="-51.613" y1="4098.247" x2="-51.613" y2="-423.173"/>
<line fill="none" x1="-51.613" y1="4098.247" x2="-51.613" y2="-423.173"/>
<path fill="#E6E6E6" d="M-15.388,33.611"/>
<path fill="#E6E6E6" d="M-295.198-1463.5"/>
<line fill="none" x1="-51.613" y1="4098.247" x2="-51.613" y2="-423.173"/>
<line fill="none" x1="19.393" y1="49.838" x2="-260.417" y2="-1479.726"/>
<line fill="none" x1="5.823" y1="-34.701" x2="-273.989" y2="-1476.217"/>
<line fill="none" x1="19.393" y1="49.837" x2="-260.417" y2="-1479.726"/>
<line fill="none" x1="-54.607" y1="-429.499" x2="-54.607" y2="85.711"/>
<line fill="none" x1="-331.424" y1="-2209.993" x2="-51.613" y2="-26.389"/>
<defs>
	
		<filter id="Adobe_OpacityMaskFilter_4_" filterUnits="userSpaceOnUse" x="-332.027" y="-2220.434" width="279.81" height="2209.95">
		<feColorMatrix  type="matrix" values="1 0 0 0 0  0 1 0 0 0  0 0 1 0 0  0 0 0 1 0"/>
	</filter>
</defs>
<mask maskUnits="userSpaceOnUse" x="-332.027" y="-2220.434" width="279.81" height="2209.95" id="SVGID_13_">
	<g filter="url(#Adobe_OpacityMaskFilter_4_)">
		
			<linearGradient id="SVGID_14_" gradientUnits="userSpaceOnUse" x1="-375.5232" y1="2268.5334" x2="-374.5232" y2="2268.5334" gradientTransform="matrix(-768 0 0 768 -287965.9063 -1744273.25)">
			<stop  offset="0" style="stop-color:#000000"/>
			<stop  offset="1" style="stop-color:#FFFFFF"/>
		</linearGradient>
		<rect x="-332.027" y="-2220.434" fill="url(#SVGID_14_)" width="768" height="362.345"/>
	</g>
</mask>
<linearGradient id="SVGID_15_" gradientUnits="userSpaceOnUse" x1="-374.8875" y1="2269.7366" x2="-374.5232" y2="2269.7366" gradientTransform="matrix(-768 0 0 768 -287965.9063 -1744273.25)">
	<stop  offset="0" style="stop-color:#FFFFFF"/>
	<stop  offset="1" style="stop-color:#000000"/>
</linearGradient>
<line mask="url(#SVGID_13_)" fill="url(#SVGID_15_)" x1="-52.217" y1="-10.485" x2="-332.027" y2="-2220.434"/>
<line fill="none" x1="-52.217" y1="-10.485" x2="-332.027" y2="-2220.434"/>
<line fill="none" x1="-332.027" y1="-2220.437" x2="-52.217" y2="-10.483"/>
<line fill="none" x1="-331.424" y1="-2209.993" x2="-51.613" y2="-26.389"/>
<line fill="none" x1="-51.613" y1="4098.247" x2="-51.613" y2="-423.173"/>
<line fill="none" x1="-51.613" y1="4098.247" x2="-51.613" y2="-423.173"/>
<line fill="none" x1="-51.613" y1="4098.247" x2="-51.613" y2="-423.173"/>
<line fill="#FFFFFF" x1="-51.613" y1="57.446" x2="-331.424" y2="-1730.159"/>
<line fill="none" x1="-51.613" y1="4098.247" x2="-51.613" y2="-423.173"/>
<line fill="#FFFFFF" x1="-51.613" y1="-2.553" x2="-51.613" y2="57.447"/>
<path fill="none" stroke="#D8D8D8" stroke-width="0.75" stroke-miterlimit="10" d="M-51.613,57.446"/>
<line fill="none" x1="-51.613" y1="4098.247" x2="-51.613" y2="-423.173"/>
<line fill="#FFFFFF" x1="-331.424" y1="-1910.159" x2="-51.613" y2="-2.553"/>
<path fill="none" stroke="#D8D8D8" stroke-width="0.75" stroke-miterlimit="10" d="M-51.613-2.554"/>
<line fill="#FFFFFF" x1="-331.424" y1="-1910.159" x2="-331.424" y2="-1970.159"/>
<line fill="none" x1="-51.613" y1="4098.247" x2="-51.613" y2="-423.173"/>
<path fill="none" stroke="#D8D8D8" stroke-width="0.75" stroke-miterlimit="10" d="M-331.424-1910.159"/>
<line fill="none" x1="-51.613" y1="4098.247" x2="-51.613" y2="-423.173"/>
<line fill="none" x1="-51.613" y1="4098.247" x2="-51.613" y2="-423.173"/>
<line fill="none" x1="-51.613" y1="4098.247" x2="-51.613" y2="-423.173"/>
<line fill="none" x1="-51.613" y1="4098.247" x2="-51.613" y2="-423.173"/>
<line fill="none" x1="-51.613" y1="4098.247" x2="-51.613" y2="-423.173"/>
<line fill="none" x1="-51.613" y1="4098.247" x2="-51.613" y2="-423.173"/>
<line fill="none" x1="-51.613" y1="4098.247" x2="-51.613" y2="-423.173"/>
<line fill="none" x1="-51.613" y1="4098.247" x2="-51.613" y2="-423.173"/>
<line fill="#FFFFFF" x1="-331.424" y1="-1714.803" x2="-51.613" y2="72.801"/>
<line fill="none" x1="-51.613" y1="4098.247" x2="-51.613" y2="-423.173"/>
<line fill="#FFFFFF" x1="-51.613" y1="72.801" x2="-51.613" y2="12.801"/>
<line fill="none" x1="-51.613" y1="4098.247" x2="-51.613" y2="-423.173"/>
<path fill="none" stroke="#D8D8D8" stroke-width="0.75" stroke-miterlimit="10" d="M-51.613,72.801"/>
<line fill="#FFFFFF" x1="-51.613" y1="12.801" x2="-51.613" y2="-47.199"/>
<line fill="none" x1="-51.613" y1="4098.247" x2="-51.613" y2="-423.173"/>
<path fill="none" stroke="#D8D8D8" stroke-width="0.75" stroke-miterlimit="10" d="M-51.613,12.801"/>
<line fill="none" x1="-51.613" y1="4098.247" x2="-51.613" y2="-423.173"/>
<path fill="#F2F2F2" d="M-203.424-2022.481"/>
<path fill="#F2F2F2" d="M-203.424-1894.803"/>
<line fill="none" x1="-51.613" y1="4098.247" x2="-51.613" y2="-423.173"/>
<line fill="none" x1="-51.613" y1="4098.247" x2="-51.613" y2="-423.173"/>
<line fill="none" x1="-51.613" y1="4098.247" x2="-51.613" y2="-423.173"/>
<line fill="none" x1="-51.613" y1="4098.247" x2="-51.613" y2="-423.173"/>
<line fill="none" x1="-51.613" y1="4098.247" x2="-51.613" y2="-423.173"/>
<line fill="#FFFFFF" x1="-331.424" y1="-1714.803" x2="-51.613" y2="72.801"/>
<line fill="none" x1="-51.613" y1="4098.247" x2="-51.613" y2="-423.173"/>
<line fill="none" x1="-51.613" y1="4098.247" x2="-51.613" y2="-423.173"/>
<line fill="none" x1="-51.613" y1="4098.247" x2="-51.613" y2="-423.173"/>
<line fill="none" x1="-51.613" y1="4098.247" x2="-51.613" y2="-423.173"/>
<line fill="#E6E6E6" x1="-51.613" y1="-54.877" x2="-331.424" y2="-1932.481"/>
<line fill="none" x1="-51.613" y1="4098.247" x2="-51.613" y2="-423.173"/>
<path fill="none" stroke="#D8D8D8" stroke-width="0.75" stroke-miterlimit="10" d="M-51.613-54.877"/>
<path fill="none" stroke="#000000" stroke-width="1.75" stroke-miterlimit="10" d="M19.309-15.885
	c4.523,2.714,8.596,4.434,8.596,4.434s1.809,0.814,2.805,3.709c0.994,2.896,4.342,11.491,4.342,11.491l-7.961,3.709l-2.805-5.607
	c-0.021-0.044-0.088-0.035-0.086,0.014c0.066,2.471,1.201,27.036,1.352,29.027c-3.846,3.845-22.393,3.937-26.329,0
	c0.15-1.87,1.285-26.556,1.352-29.027C0.576,1.816,0.51,1.807,0.489,1.851l-2.805,5.607l-7.961-3.709c0,0,3.348-8.595,4.343-11.491
	c0.995-2.895,2.805-3.709,2.805-3.709s4.071-1.72,8.595-4.434C8.858-12.492,15.917-12.492,19.309-15.885z"/>
<path fill="#F2F2F2" d="M-203.424-1902.481"/>
<path fill="#F2F2F2" d="M-203.424-1774.803"/>
<path fill="none" stroke="#D8D8D8" stroke-width="0.75" stroke-miterlimit="10" d="M-51.613,72.801"/>
<line fill="none" x1="-51.613" y1="4098.247" x2="-51.613" y2="-423.173"/>
<line fill="#606060" x1="-51.613" y1="-423.173" x2="-51.613" y2="4098.247"/>
<line fill="#606060" x1="-51.613" y1="4098.247" x2="-51.613" y2="-423.173"/>
<line fill="#606060" x1="-51.613" y1="-423.173" x2="-51.613" y2="4098.247"/>
<line fill="#606060" x1="-51.613" y1="4098.247" x2="-51.613" y2="-423.173"/>
<line fill="#606060" x1="-51.613" y1="-423.173" x2="-51.613" y2="4098.247"/>
<line fill="#606060" x1="-51.613" y1="4098.247" x2="-51.613" y2="-423.173"/>
<line fill="#606060" x1="-51.613" y1="-423.173" x2="-51.613" y2="4098.247"/>
<line fill="#606060" x1="-51.613" y1="4098.247" x2="-51.613" y2="-423.173"/>
<line fill="#606060" x1="-51.613" y1="-423.173" x2="-51.613" y2="4098.247"/>
<line fill="#606060" x1="-51.613" y1="4098.247" x2="-51.613" y2="-423.173"/>
<path fill="none" d="M-331.424,2250.643"/>
<path fill="none" d="M-331.424-2270.777"/>
</svg>
