<?xml version="1.0" encoding="utf-8"?>
<!-- Generator: Adobe Illustrator 16.0.3, SVG Export Plug-In . SVG Version: 6.00 Build 0)  -->
<!DOCTYPE svg PUBLIC "-//W3C//DTD SVG 1.1//EN" "http://www.w3.org/Graphics/SVG/1.1/DTD/svg11.dtd">
<svg version="1.1" id="Capa_1" xmlns="http://www.w3.org/2000/svg" xmlns:xlink="http://www.w3.org/1999/xlink" x="0px" y="0px"
	 width="24.5px" height="22px" viewBox="0 0 24.5 22" enable-background="new 0 0 24.5 22" xml:space="preserve">
<line fill="#FFFFFF" x1="-32.373" y1="-885.864" x2="-32.373" y2="3635.557"/>
<line fill="#FFFFFF" x1="-32.373" y1="-885.864" x2="-32.373" y2="3635.557"/>
<line fill="none" x1="-32.373" y1="3635.557" x2="-32.373" y2="-885.863"/>
<line fill="none" x1="-32.373" y1="3635.557" x2="-32.373" y2="-885.863"/>
<line fill="none" x1="-32.373" y1="3635.557" x2="-32.373" y2="-885.863"/>
<line fill="none" x1="-32.373" y1="3635.557" x2="-32.373" y2="-885.863"/>
<line fill="none" x1="-32.373" y1="3635.557" x2="-32.373" y2="-885.863"/>
<line fill="none" x1="-32.373" y1="3635.557" x2="-32.373" y2="-885.863"/>
<line fill="none" x1="-32.373" y1="3635.557" x2="-32.373" y2="-885.863"/>
<line fill="none" x1="-32.373" y1="3635.557" x2="-32.373" y2="-885.863"/>
<line fill="none" x1="-32.373" y1="3635.557" x2="-32.373" y2="-885.863"/>
<line fill="none" x1="-32.373" y1="3635.557" x2="-32.373" y2="-885.863"/>
<line fill="none" x1="-32.373" y1="3635.557" x2="-32.373" y2="-885.863"/>
<line fill="none" x1="-32.373" y1="3635.557" x2="-32.373" y2="-885.863"/>
<line fill="none" x1="-32.373" y1="3635.557" x2="-32.373" y2="-885.863"/>
<line fill="none" x1="-32.373" y1="3635.557" x2="-32.373" y2="-885.863"/>
<line fill="none" x1="-32.373" y1="3635.557" x2="-32.373" y2="-885.863"/>
<line fill="none" x1="-32.373" y1="3635.557" x2="-32.373" y2="-885.863"/>
<line fill="none" x1="-32.373" y1="3635.557" x2="-32.373" y2="-885.863"/>
<line fill="none" x1="-32.373" y1="3635.557" x2="-32.373" y2="-885.863"/>
<line fill="none" x1="-32.373" y1="3635.557" x2="-32.373" y2="-885.863"/>
<line fill="#FFFFFF" x1="-5.25" y1="-2178.383" x2="-5.25" y2="-2239.002"/>
<line fill="none" stroke="#000000" stroke-miterlimit="10" x1="2.25" y1="3.25" x2="21.873" y2="3.25"/>
<line fill="none" stroke="#000000" stroke-miterlimit="10" x1="2.25" y1="11.035" x2="21.873" y2="11.035"/>
<line fill="none" stroke="#000000" stroke-miterlimit="10" x1="2.25" y1="18.821" x2="21.873" y2="18.821"/>
<line fill="none" x1="-32.373" y1="3635.557" x2="-32.373" y2="-885.863"/>
<line fill="none" x1="-32.373" y1="3635.557" x2="-32.373" y2="-885.863"/>
<line fill="none" x1="-32.373" y1="3635.557" x2="-32.373" y2="-885.863"/>
<line fill="none" x1="-32.373" y1="3635.557" x2="-32.373" y2="-885.863"/>
<line fill="none" x1="-32.373" y1="3635.557" x2="-32.373" y2="-885.863"/>
<line fill="none" x1="-32.373" y1="3635.557" x2="-32.373" y2="-885.863"/>
<line fill="none" x1="-32.373" y1="3635.557" x2="-32.373" y2="-885.863"/>
<line fill="none" x1="-32.373" y1="3635.557" x2="-32.373" y2="-885.863"/>
<line fill="none" x1="-32.373" y1="3635.557" x2="-32.373" y2="-885.863"/>
<line fill="none" x1="-32.373" y1="3635.557" x2="-32.373" y2="-885.863"/>
<line fill="none" x1="-32.373" y1="3635.557" x2="-32.373" y2="-885.863"/>
<line fill="none" x1="-32.373" y1="3635.557" x2="-32.373" y2="-885.863"/>
<line fill="none" x1="-32.373" y1="3635.557" x2="-32.373" y2="-885.863"/>
<line fill="none" x1="-32.373" y1="3635.557" x2="-32.373" y2="-885.863"/>
<line fill="none" x1="-32.373" y1="3635.557" x2="-32.373" y2="-885.863"/>
<line fill="none" x1="-32.373" y1="3635.557" x2="-32.373" y2="-885.863"/>
<line fill="none" x1="-32.373" y1="3635.557" x2="-32.373" y2="-885.863"/>
<line fill="none" x1="-32.373" y1="3635.557" x2="-32.373" y2="-885.863"/>
<line fill="none" x1="-32.373" y1="3635.557" x2="-32.373" y2="-885.863"/>
<line fill="none" x1="-32.373" y1="3635.557" x2="-32.373" y2="-885.863"/>
<line fill="none" x1="-32.373" y1="3635.557" x2="-32.373" y2="-885.863"/>
<line fill="none" x1="-32.373" y1="3635.557" x2="-32.373" y2="-885.863"/>
<line fill="none" x1="-32.373" y1="3635.557" x2="-32.373" y2="-885.863"/>
<line fill="none" x1="-32.373" y1="3635.557" x2="-32.373" y2="-885.863"/>
<line fill="none" x1="-32.373" y1="3635.557" x2="-32.373" y2="-885.863"/>
<line fill="none" x1="-32.373" y1="3635.557" x2="-32.373" y2="-885.863"/>
<line fill="none" x1="-32.373" y1="3635.557" x2="-32.373" y2="-885.863"/>
<line fill="none" x1="-32.373" y1="3635.557" x2="-32.373" y2="-885.863"/>
<line fill="#606060" x1="-32.373" y1="-885.863" x2="-32.373" y2="3635.557"/>
<line fill="#606060" x1="-32.373" y1="3635.557" x2="-32.373" y2="-885.863"/>
<line fill="#606060" x1="-32.373" y1="-885.863" x2="-32.373" y2="3635.557"/>
<line fill="#606060" x1="-32.373" y1="3635.557" x2="-32.373" y2="-885.863"/>
<line fill="#606060" x1="-32.373" y1="-885.863" x2="-32.373" y2="3635.557"/>
<line fill="#606060" x1="-32.373" y1="3635.557" x2="-32.373" y2="-885.863"/>
<line fill="#606060" x1="-32.373" y1="-885.863" x2="-32.373" y2="3635.557"/>
<line fill="#606060" x1="-32.373" y1="3635.557" x2="-32.373" y2="-885.863"/>
<line fill="#606060" x1="-32.373" y1="-885.863" x2="-32.373" y2="3635.557"/>
<line fill="#606060" x1="-53.438" y1="2342.426" x2="-53.438" y2="-2178.994"/>
<path fill="none" d="M-5.25,2282.42"/>
<path fill="none" d="M-5.25-2239"/>
</svg>
