<?xml version="1.0" encoding="utf-8"?>
<!-- Generator: Adobe Illustrator 16.0.3, SVG Export Plug-In . SVG Version: 6.00 Build 0)  -->
<!DOCTYPE svg PUBLIC "-//W3C//DTD SVG 1.1//EN" "http://www.w3.org/Graphics/SVG/1.1/DTD/svg11.dtd">
<svg version="1.1" id="Capa_1" xmlns="http://www.w3.org/2000/svg" xmlns:xlink="http://www.w3.org/1999/xlink" x="0px" y="0px"
	 width="19.148px" height="18.992px" viewBox="-1.77 -0.713 19.148 18.992" enable-background="new -1.77 -0.713 19.148 18.992"
	 xml:space="preserve">
<g>
	<g>
		<defs>
			<rect id="SVGID_1_" x="-0.363" y="0" width="16.068" height="16.113"/>
		</defs>
		<clipPath id="SVGID_2_">
			<use xlink:href="#SVGID_1_"  overflow="visible"/>
		</clipPath>
	</g>
</g>
<path d="M14.667,15.117l-1-11.276c-0.021-0.25-0.232-0.44-0.48-0.44h-2.061C11.098,1.52,9.559,0,7.671,0S4.243,1.52,4.216,3.401
	h-2.06c-0.251,0-0.458,0.19-0.479,0.44L0.675,15.117c0,0.016-0.003,0.029-0.003,0.043c0,1.285,1.176,2.33,2.625,2.33h8.749
	c1.447,0,2.625-1.045,2.625-2.33C14.671,15.147,14.671,15.133,14.667,15.117 M7.671,0.966c1.355,0,2.461,1.088,2.488,2.436H5.182
	C5.21,2.053,6.315,0.966,7.671,0.966 M12.046,16.524H3.297c-0.908,0-1.646-0.6-1.659-1.34L2.596,4.37h1.618v1.467
	c0,0.269,0.213,0.482,0.48,0.482c0.27,0,0.484-0.214,0.484-0.482V4.37h4.98v1.467c0,0.269,0.217,0.482,0.484,0.482
	s0.482-0.214,0.482-0.482V4.37h1.617l0.963,10.814C13.69,15.924,12.95,16.524,12.046,16.524"/>
</svg>
