<?xml version="1.0" encoding="utf-8"?>
<!-- Generator: Adobe Illustrator 16.0.3, SVG Export Plug-In . SVG Version: 6.00 Build 0)  -->
<!DOCTYPE svg PUBLIC "-//W3C//DTD SVG 1.1//EN" "http://www.w3.org/Graphics/SVG/1.1/DTD/svg11.dtd">
<svg version="1.1" id="Capa_1" xmlns="http://www.w3.org/2000/svg" xmlns:xlink="http://www.w3.org/1999/xlink" x="0px" y="0px"
	 width="61.302px" height="67.001px" viewBox="-18.424 -24.777 61.302 67.001"
	 enable-background="new -18.424 -24.777 61.302 67.001" xml:space="preserve">
<line fill="#FFFFFF" x1="-371.133" y1="-586.111" x2="-371.133" y2="3935.311"/>
<line fill="#FFFFFF" x1="-371.133" y1="-586.111" x2="-371.133" y2="3935.311"/>
<line fill="none" x1="-371.133" y1="3935.311" x2="-371.133" y2="-586.11"/>
<line fill="none" x1="-371.133" y1="3935.311" x2="-371.133" y2="-586.11"/>
<line fill="none" x1="-371.133" y1="3935.311" x2="-371.133" y2="-586.11"/>
<line fill="none" x1="-371.133" y1="3935.311" x2="-371.133" y2="-586.11"/>
<line fill="none" x1="-371.133" y1="3935.311" x2="-371.133" y2="-586.11"/>
<line fill="none" x1="-371.133" y1="3935.311" x2="-371.133" y2="-586.11"/>
<line fill="none" x1="-371.133" y1="3935.311" x2="-371.133" y2="-586.11"/>
<line fill="none" x1="-371.133" y1="3935.311" x2="-371.133" y2="-586.11"/>
<line fill="none" x1="-371.133" y1="3935.311" x2="-371.133" y2="-586.11"/>
<line fill="none" x1="-371.133" y1="3935.311" x2="-371.133" y2="-586.11"/>
<line fill="none" x1="-371.133" y1="3935.311" x2="-371.133" y2="-586.11"/>
<line fill="none" x1="-371.133" y1="3935.311" x2="-371.133" y2="-586.11"/>
<line fill="none" x1="-371.133" y1="3935.311" x2="-371.133" y2="-586.11"/>
<line fill="none" x1="-371.133" y1="3935.311" x2="-371.133" y2="-586.11"/>
<line fill="none" x1="-371.133" y1="3935.311" x2="-371.133" y2="-586.11"/>
<line fill="none" x1="-371.133" y1="3935.311" x2="-371.133" y2="-586.11"/>
<line fill="none" x1="-371.133" y1="3935.311" x2="-371.133" y2="-586.11"/>
<line fill="none" x1="-371.133" y1="3935.311" x2="-371.133" y2="-586.11"/>
<line fill="none" x1="-374.127" y1="-592.436" x2="-374.127" y2="-77.225"/>
<line fill="none" x1="-371.133" y1="-525.326" x2="-371.133" y2="-189.326"/>
<defs>
	<filter id="Adobe_OpacityMaskFilter" filterUnits="userSpaceOnUse" x="-371.736" y="-535.767" width="0" height="362.345">
		<feColorMatrix  type="matrix" values="1 0 0 0 0  0 1 0 0 0  0 0 1 0 0  0 0 0 1 0"/>
	</filter>
</defs>
<mask maskUnits="userSpaceOnUse" x="-371.736" y="-535.767" width="0" height="362.345" id="SVGID_1_">
	<g filter="url(#Adobe_OpacityMaskFilter)">
		
			<linearGradient id="SVGID_2_" gradientUnits="userSpaceOnUse" x1="-375.4714" y1="2270.7268" x2="-374.4714" y2="2270.7268" gradientTransform="matrix(-768 0 0 768 -287965.9063 -1744273.25)">
			<stop  offset="0" style="stop-color:#000000"/>
			<stop  offset="1" style="stop-color:#FFFFFF"/>
		</linearGradient>
		<rect x="-371.736" y="-535.767" fill="url(#SVGID_2_)" width="768" height="362.345"/>
	</g>
</mask>
<linearGradient id="SVGID_3_" gradientUnits="userSpaceOnUse" x1="-374.4714" y1="2270.7268" x2="-374.4714" y2="2270.7268" gradientTransform="matrix(-768 0 0 768 -287965.9063 -1744273.25)">
	<stop  offset="0" style="stop-color:#FFFFFF"/>
	<stop  offset="1" style="stop-color:#000000"/>
</linearGradient>
<line mask="url(#SVGID_1_)" fill="url(#SVGID_3_)" x1="-371.736" y1="-173.422" x2="-371.736" y2="-535.767"/>
<line fill="none" x1="-371.736" y1="-173.422" x2="-371.736" y2="-535.767"/>
<line fill="none" x1="-371.736" y1="-535.77" x2="-371.736" y2="-173.42"/>
<line fill="none" x1="-371.133" y1="-525.326" x2="-371.133" y2="-189.326"/>
<line fill="none" x1="-371.133" y1="3935.311" x2="-371.133" y2="-586.11"/>
<line fill="none" x1="-371.133" y1="3935.311" x2="-371.133" y2="-586.11"/>
<line fill="none" x1="-371.133" y1="3935.311" x2="-371.133" y2="-586.11"/>
<line fill="none" x1="-371.133" y1="3935.311" x2="-371.133" y2="-586.11"/>
<line fill="none" x1="-371.133" y1="3935.311" x2="-371.133" y2="-586.11"/>
<line fill="none" x1="-371.133" y1="3935.311" x2="-371.133" y2="-586.11"/>
<line fill="none" x1="-371.133" y1="3935.311" x2="-371.133" y2="-586.11"/>
<path fill="none" stroke="#D8D8D8" stroke-width="0.75" stroke-miterlimit="10" d="M-371.133-285.491"/>
<path fill="none" stroke="#D8D8D8" stroke-width="0.75" stroke-miterlimit="10" d="M396.87-285.491"/>
<line fill="none" x1="-371.133" y1="3935.311" x2="-371.133" y2="-586.11"/>
<path fill="none" stroke="#D8D8D8" stroke-width="0.75" stroke-miterlimit="10" d="M-371.133-345.491"/>
<path fill="none" stroke="#D8D8D8" stroke-width="0.75" stroke-miterlimit="10" d="M396.87-345.491"/>
<line fill="none" x1="-371.133" y1="3935.311" x2="-371.133" y2="-586.11"/>
<line fill="none" x1="-371.133" y1="3935.311" x2="-371.133" y2="-586.11"/>
<line fill="none" x1="-371.133" y1="3935.311" x2="-371.133" y2="-586.11"/>
<line fill="none" x1="-371.133" y1="3935.311" x2="-371.133" y2="-586.11"/>
<line fill="none" x1="-371.133" y1="3935.311" x2="-371.133" y2="-586.11"/>
<line fill="none" x1="-371.133" y1="3935.311" x2="-371.133" y2="-586.11"/>
<line fill="none" x1="-371.133" y1="3935.311" x2="-371.133" y2="-586.11"/>
<line fill="none" x1="-371.133" y1="3935.311" x2="-371.133" y2="-586.11"/>
<line fill="none" x1="-371.133" y1="3935.311" x2="-371.133" y2="-586.11"/>
<line fill="none" x1="-371.133" y1="3935.311" x2="-371.133" y2="-586.11"/>
<path fill="none" stroke="#000000" stroke-width="1.75" stroke-miterlimit="10" d="M-193.677-238.853"/>
<path fill="none" stroke="#000000" stroke-width="1.75" stroke-miterlimit="10" d="M-182.473-238.853"/>
<path fill="none" stroke="#000000" stroke-width="1.75" stroke-linecap="round" stroke-miterlimit="10" d="M-175.792-239.274"/>
<path fill="none" stroke="#000000" stroke-width="1.75" stroke-linecap="round" stroke-miterlimit="10" d="M-164.589-239.154"/>
<path fill="none" stroke="#000000" stroke-width="1.75" stroke-miterlimit="10" d="M-187.648-238.551"/>
<path fill="none" stroke="#000000" stroke-width="1.75" stroke-miterlimit="10" d="M-187.529-282.463"/>
<path fill="none" stroke="#000000" stroke-width="1.75" stroke-miterlimit="10" d="M-169.746-238.551"/>
<path fill="none" stroke="#000000" stroke-width="1.75" stroke-miterlimit="10" d="M-169.867-282.463"/>
<line fill="none" x1="-371.133" y1="3935.311" x2="-371.133" y2="-586.11"/>
<line fill="#F2F2F2" x1="-371.133" y1="-375.492" x2="-371.133" y2="-247.813"/>
<line fill="none" x1="-371.133" y1="3935.311" x2="-371.133" y2="-586.11"/>
<line fill="none" x1="-371.133" y1="3935.311" x2="-371.133" y2="-586.11"/>
<line fill="none" x1="-371.133" y1="3935.311" x2="-371.133" y2="-586.11"/>
<line fill="none" x1="-371.133" y1="3935.311" x2="-371.133" y2="-586.11"/>
<line fill="none" x1="-371.133" y1="3935.311" x2="-371.133" y2="-586.11"/>
<line fill="none" x1="-371.133" y1="3935.311" x2="-371.133" y2="-586.11"/>
<line fill="none" x1="-371.133" y1="3935.311" x2="-371.133" y2="-586.11"/>
<line fill="none" x1="-371.133" y1="3935.311" x2="-371.133" y2="-586.11"/>
<line fill="none" x1="-371.133" y1="3935.311" x2="-371.133" y2="-586.11"/>
<path fill="#FFFFFF" d="M-243.133-247.814"/>
<path fill="#FFFFFF" d="M-243.133-375.492"/>
<line fill="#FFFFFF" x1="-371.133" y1="-247.814" x2="-371.133" y2="-375.492"/>
<path fill="#F2F2F2" d="M-243.133-375.492"/>
<path fill="#F2F2F2" d="M-243.133-247.814"/>
<line fill="none" x1="-371.133" y1="3935.311" x2="-371.133" y2="-586.11"/>
<line fill="#606060" x1="-371.133" y1="-586.11" x2="-371.133" y2="3935.311"/>
<line fill="#606060" x1="-371.133" y1="3935.311" x2="-371.133" y2="-586.11"/>
<line fill="#606060" x1="-371.133" y1="-586.11" x2="-371.133" y2="3935.311"/>
<line fill="#606060" x1="-371.133" y1="3935.311" x2="-371.133" y2="-586.11"/>
<line fill="#606060" x1="-371.133" y1="-586.11" x2="-371.133" y2="3935.311"/>
<line fill="#606060" x1="-371.133" y1="3935.311" x2="-371.133" y2="-586.11"/>
<path fill="#606060" d="M-371.133,3935.311"/>
<path fill="#606060" d="M-371.133-586.11"/>
<path fill="#606060" d="M-371.133-586.11"/>
<path fill="#606060" d="M-371.133,3935.311"/>
<path fill="#606060" d="M-371.133,3935.311"/>
<path fill="#606060" d="M-371.133-586.11"/>
<path fill="#606060" d="M-371.133-586.11"/>
<path fill="#606060" d="M-371.133,3935.311"/>
<path fill="none" d="M-371.133,3935.311"/>
<path fill="none" d="M-371.133-586.11"/>
<path fill="#FFFFFF" d="M-548.133,2472.311"/>
<path fill="#FFFFFF" d="M-548.133-2049.111"/>
<path fill="#FFFFFF" d="M-548.133,2472.311"/>
<path fill="#FFFFFF" d="M-548.133-2049.111"/>
<path fill="none" d="M-548.133-2049.11"/>
<path fill="none" d="M-548.133,2472.311"/>
<path fill="none" d="M-548.133-2049.11"/>
<path fill="none" d="M-548.133,2472.311"/>
<path fill="none" d="M-548.133-2049.11"/>
<path fill="none" d="M-548.133,2472.311"/>
<path fill="none" d="M-548.133-2049.11"/>
<path fill="none" d="M-548.133,2472.311"/>
<path fill="none" d="M-548.133-2049.11"/>
<path fill="none" d="M-548.133,2472.311"/>
<path fill="none" d="M-548.133-2049.11"/>
<path fill="none" d="M-548.133,2472.311"/>
<path fill="none" d="M-548.133-2049.11"/>
<path fill="none" d="M-548.133,2472.311"/>
<path fill="none" d="M-548.133-2049.11"/>
<path fill="none" d="M-548.133,2472.311"/>
<path fill="none" d="M-548.133-2049.11"/>
<path fill="none" d="M-548.133,2472.311"/>
<path fill="none" d="M-548.133-2049.11"/>
<path fill="none" d="M-548.133,2472.311"/>
<path fill="none" d="M-548.133-2049.11"/>
<path fill="none" d="M-548.133,2472.311"/>
<path fill="none" d="M-548.133-2049.11"/>
<path fill="none" d="M-548.133,2472.311"/>
<path fill="none" d="M-548.133-2049.11"/>
<path fill="none" d="M-548.133,2472.311"/>
<path fill="none" d="M-548.133-2049.11"/>
<path fill="none" d="M-548.133,2472.311"/>
<path fill="none" d="M-548.133-2049.11"/>
<path fill="none" d="M-548.133,2472.311"/>
<path fill="none" d="M-548.133-2049.11"/>
<path fill="none" d="M-548.133,2472.311"/>
<path fill="none" d="M-548.133-2049.11"/>
<path fill="none" d="M-548.133,2472.311"/>
<path fill="none" d="M-548.133-2049.11"/>
<path fill="none" d="M-548.133,2472.311"/>
<path fill="none" d="M-551.127-1540.225"/>
<path fill="none" d="M-551.127-2055.436"/>
<path fill="none" d="M-548.133-1988.326"/>
<defs>
	<filter id="Adobe_OpacityMaskFilter_1_" filterUnits="userSpaceOnUse" x="-548.736" y="-1998.767" width="0" height="0">
		<feColorMatrix  type="matrix" values="1 0 0 0 0  0 1 0 0 0  0 0 1 0 0  0 0 0 1 0"/>
	</filter>
</defs>
<mask maskUnits="userSpaceOnUse" x="-548.736" y="-1998.767" width="0" height="0" id="SVGID_4_">
	<g filter="url(#Adobe_OpacityMaskFilter_1_)">
		
			<linearGradient id="SVGID_5_" gradientUnits="userSpaceOnUse" x1="-375.241" y1="2268.8225" x2="-374.241" y2="2268.8225" gradientTransform="matrix(-768 0 0 768 -287965.9063 -1744273.25)">
			<stop  offset="0" style="stop-color:#000000"/>
			<stop  offset="1" style="stop-color:#FFFFFF"/>
		</linearGradient>
		<rect x="-548.736" y="-1998.767" fill="url(#SVGID_5_)" width="768" height="362.345"/>
	</g>
</mask>
<linearGradient id="SVGID_6_" gradientUnits="userSpaceOnUse" x1="-374.241" y1="2268.5862" x2="-374.241" y2="2268.5862" gradientTransform="matrix(-768 0 0 768 -287965.9063 -1744273.25)">
	<stop  offset="0" style="stop-color:#FFFFFF"/>
	<stop  offset="1" style="stop-color:#000000"/>
</linearGradient>
<path mask="url(#SVGID_4_)" fill="url(#SVGID_6_)" d="M-548.736-1998.767"/>
<defs>
	<filter id="Adobe_OpacityMaskFilter_2_" filterUnits="userSpaceOnUse" x="-548.736" y="-1636.422" width="0" height="0">
		<feColorMatrix  type="matrix" values="1 0 0 0 0  0 1 0 0 0  0 0 1 0 0  0 0 0 1 0"/>
	</filter>
</defs>
<mask maskUnits="userSpaceOnUse" x="-548.736" y="-1636.422" width="0" height="0" id="SVGID_7_">
	<g filter="url(#Adobe_OpacityMaskFilter_2_)">
		
			<linearGradient id="SVGID_8_" gradientUnits="userSpaceOnUse" x1="-375.241" y1="2268.8225" x2="-374.241" y2="2268.8225" gradientTransform="matrix(-768 0 0 768 -287965.9063 -1744273.25)">
			<stop  offset="0" style="stop-color:#000000"/>
			<stop  offset="1" style="stop-color:#FFFFFF"/>
		</linearGradient>
		<rect x="-548.736" y="-1998.767" fill="url(#SVGID_8_)" width="768" height="362.345"/>
	</g>
</mask>
<linearGradient id="SVGID_9_" gradientUnits="userSpaceOnUse" x1="-374.241" y1="2269.0579" x2="-374.241" y2="2269.0579" gradientTransform="matrix(-768 0 0 768 -287965.9063 -1744273.25)">
	<stop  offset="0" style="stop-color:#FFFFFF"/>
	<stop  offset="1" style="stop-color:#000000"/>
</linearGradient>
<path mask="url(#SVGID_7_)" fill="url(#SVGID_9_)" d="M-548.736-1636.422"/>
<path fill="none" d="M-548.736-1998.767"/>
<path fill="none" d="M-548.736-1636.422"/>
<path fill="none" d="M-548.736-1636.42"/>
<path fill="none" d="M-548.736-1998.77"/>
<path fill="none" d="M-548.133-1988.326"/>
<path fill="none" d="M-548.133-2049.11"/>
<path fill="none" d="M-548.133,2472.311"/>
<path fill="none" d="M-548.133-2049.11"/>
<path fill="none" d="M-548.133,2472.311"/>
<path fill="none" d="M-548.133-2049.11"/>
<path fill="none" d="M-548.133,2472.311"/>
<path fill="none" d="M-548.133-2049.11"/>
<path fill="none" d="M-548.133,2472.311"/>
<path fill="none" d="M-548.133-2049.11"/>
<path fill="none" d="M-548.133,2472.311"/>
<path fill="#FFFFFF" d="M219.87-1748.491"/>
<path fill="none" d="M-548.133-2049.11"/>
<path fill="none" d="M-548.133,2472.311"/>
<path fill="#FFFFFF" d="M219.87-1808.491"/>
<path fill="#FFFFFF" d="M219.87-1748.491"/>
<path fill="none" d="M-548.133-2049.11"/>
<path fill="none" d="M-548.133,2472.311"/>
<path fill="none" stroke="#D8D8D8" stroke-width="0.75" stroke-miterlimit="10" d="M219.87-1748.491"/>
<path fill="none" d="M-548.133-2049.11"/>
<path fill="none" d="M-548.133,2472.311"/>
<path fill="none" stroke="#D8D8D8" stroke-width="0.75" stroke-miterlimit="10" d="M219.87-1808.491"/>
<path fill="none" d="M-548.133-2049.11"/>
<path fill="none" d="M-548.133,2472.311"/>
<path fill="none" d="M-548.133-2049.11"/>
<path fill="none" d="M-548.133,2472.311"/>
<path fill="none" d="M-548.133-2049.11"/>
<path fill="none" d="M-548.133,2472.311"/>
<path fill="none" d="M-548.133-2049.11"/>
<path fill="none" d="M-548.133,2472.311"/>
<path fill="none" d="M-548.133-2049.11"/>
<path fill="none" d="M-548.133,2472.311"/>
<path fill="none" d="M-548.133-2049.11"/>
<path fill="none" d="M-548.133,2472.311"/>
<path fill="none" d="M-548.133-2049.11"/>
<path fill="none" d="M-548.133,2472.311"/>
<path fill="none" d="M-548.133-2049.11"/>
<path fill="none" d="M-548.133,2472.311"/>
<path fill="none" d="M-548.133-2049.11"/>
<path fill="none" d="M-548.133,2472.311"/>
<path fill="none" d="M-548.133-2049.11"/>
<path fill="none" d="M-548.133,2472.311"/>
<path fill="none" stroke="#000000" stroke-width="1.75" stroke-miterlimit="10" d="M-49.451,56.29"/>
<path fill="none" d="M-548.133-2049.11"/>
<path fill="none" d="M-548.133,2472.311"/>
<path fill="none" d="M-548.133-2049.11"/>
<path fill="none" d="M-548.133,2472.311"/>
<path fill="none" d="M-548.133-2049.11"/>
<path fill="none" d="M-548.133,2472.311"/>
<path fill="none" d="M-548.133-2049.11"/>
<path fill="none" d="M-548.133,2472.311"/>
<path fill="none" d="M-548.133-2049.11"/>
<path fill="none" d="M-548.133,2472.311"/>
<path fill="none" d="M-548.133-2049.11"/>
<path fill="none" d="M-548.133,2472.311"/>
<path fill="none" d="M-548.133-2049.11"/>
<path fill="none" d="M-548.133,2472.311"/>
<path fill="none" d="M-548.133-2049.11"/>
<path fill="none" d="M-548.133,2472.311"/>
<path fill="none" d="M-548.133-2049.11"/>
<path fill="none" d="M-548.133,2472.311"/>
<path fill="none" d="M-548.133-2049.11"/>
<path fill="none" d="M-548.133,2472.311"/>
<path fill="none" d="M-548.133-2049.11"/>
<path fill="none" d="M-548.133,2472.311"/>
<path fill="#606060" d="M-548.133,2472.311"/>
<path fill="#606060" d="M-548.133-2049.11"/>
<path fill="#606060" d="M-548.133-2049.11"/>
<path fill="#606060" d="M-548.133,2472.311"/>
<path fill="#606060" d="M-548.133,2472.311"/>
<path fill="#606060" d="M-548.133-2049.11"/>
<path fill="#606060" d="M-548.133-2049.11"/>
<path fill="#606060" d="M-548.133,2472.311"/>
<path fill="#606060" d="M-548.133,2472.311"/>
<path fill="#606060" d="M-548.133-2049.11"/>
<path fill="#606060" d="M-548.133-2049.11"/>
<path fill="#606060" d="M-548.133,2472.311"/>
<path fill="#606060" d="M-548.133,2472.311"/>
<path fill="#606060" d="M-548.133-2049.11"/>
<path fill="#606060" d="M-548.133-2049.11"/>
<path fill="#606060" d="M-548.133,2472.311"/>
<path fill="#606060" d="M-548.133,2472.311"/>
<path fill="#606060" d="M-548.133-2049.11"/>
<path fill="#606060" d="M-548.133-2049.11"/>
<path fill="#606060" d="M-548.133,2472.311"/>
<path fill="none" d="M-548.133,2472.311"/>
<path fill="none" d="M-548.133-2049.11"/>
<path fill="#FFFFFF" d="M-490.133,2116.311"/>
<path fill="#FFFFFF" d="M-490.133-2405.111"/>
<path fill="#FFFFFF" d="M-490.133,2116.311"/>
<path fill="#FFFFFF" d="M-490.133-2405.111"/>
<path fill="none" d="M-490.133-2405.11"/>
<path fill="none" d="M-490.133,2116.311"/>
<path fill="none" d="M-490.133-2405.11"/>
<path fill="none" d="M-490.133,2116.311"/>
<path fill="none" d="M-490.133-2405.11"/>
<path fill="none" d="M-490.133,2116.311"/>
<path fill="none" d="M-490.133-2405.11"/>
<path fill="none" d="M-490.133,2116.311"/>
<path fill="none" d="M-490.133-2405.11"/>
<path fill="none" d="M-490.133,2116.311"/>
<path fill="none" d="M-490.133-2405.11"/>
<path fill="none" d="M-490.133,2116.311"/>
<path fill="none" d="M-490.133-2405.11"/>
<path fill="none" d="M-490.133,2116.311"/>
<path fill="none" d="M-490.133-2405.11"/>
<path fill="none" d="M-490.133,2116.311"/>
<path fill="none" d="M-490.133-2405.11"/>
<path fill="none" d="M-490.133,2116.311"/>
<path fill="none" d="M-490.133-2405.11"/>
<path fill="none" d="M-490.133,2116.311"/>
<path fill="none" d="M-490.133-2405.11"/>
<path fill="none" d="M-490.133,2116.311"/>
<path fill="none" d="M-490.133-2405.11"/>
<path fill="none" d="M-490.133,2116.311"/>
<path fill="none" d="M-490.133-2405.11"/>
<path fill="none" d="M-490.133,2116.311"/>
<path fill="none" d="M-490.133-2405.11"/>
<path fill="none" d="M-490.133,2116.311"/>
<path fill="none" d="M-490.133-2405.11"/>
<path fill="none" d="M-490.133,2116.311"/>
<path fill="none" d="M-490.133-2405.11"/>
<path fill="none" d="M-490.133,2116.311"/>
<path fill="none" d="M-490.133-2405.11"/>
<path fill="none" d="M-490.133,2116.311"/>
<path fill="#E6E6E6" d="M-142.358-1948.326"/>
<path fill="#E6E6E6" d="M-453.907-1597.833"/>
<path fill="none" d="M-490.133-2405.11"/>
<path fill="none" d="M-490.133,2116.311"/>
<path fill="none" d="M-419.126-1614.059"/>
<path fill="none" d="M-177.138-1932.099"/>
<path fill="none" d="M-432.698-1610.549"/>
<path fill="none" d="M-161.971-2016.638"/>
<path fill="none" d="M-419.126-1614.059"/>
<path fill="none" d="M-177.137-1932.1"/>
<path fill="none" d="M-493.127-2411.436"/>
<path fill="none" d="M277.264-2008.326"/>
<path fill="none" d="M-490.133-2344.326"/>
<defs>
	<filter id="Adobe_OpacityMaskFilter_3_" filterUnits="userSpaceOnUse" x="-490.736" y="-2354.767" width="0" height="0">
		<feColorMatrix  type="matrix" values="1 0 0 0 0  0 1 0 0 0  0 0 1 0 0  0 0 0 1 0"/>
	</filter>
</defs>
<mask maskUnits="userSpaceOnUse" x="-490.736" y="-2354.767" width="0" height="0" id="SVGID_10_">
	<g filter="url(#Adobe_OpacityMaskFilter_3_)">
		
			<linearGradient id="SVGID_11_" gradientUnits="userSpaceOnUse" x1="-375.3167" y1="2268.3596" x2="-374.3167" y2="2268.3596" gradientTransform="matrix(-768 0 0 768 -287965.9063 -1744273.25)">
			<stop  offset="0" style="stop-color:#000000"/>
			<stop  offset="1" style="stop-color:#FFFFFF"/>
		</linearGradient>
		<rect x="-490.736" y="-2354.767" fill="url(#SVGID_11_)" width="768" height="362.345"/>
	</g>
</mask>
<linearGradient id="SVGID_12_" gradientUnits="userSpaceOnUse" x1="-374.3167" y1="2268.1233" x2="-374.3167" y2="2268.1233" gradientTransform="matrix(-768 0 0 768 -287965.9063 -1744273.25)">
	<stop  offset="0" style="stop-color:#FFFFFF"/>
	<stop  offset="1" style="stop-color:#000000"/>
</linearGradient>
<path mask="url(#SVGID_10_)" fill="url(#SVGID_12_)" d="M-490.736-2354.767"/>
<defs>
	<filter id="Adobe_OpacityMaskFilter_4_" filterUnits="userSpaceOnUse" x="277.264" y="-1992.422" width="0" height="0">
		<feColorMatrix  type="matrix" values="1 0 0 0 0  0 1 0 0 0  0 0 1 0 0  0 0 0 1 0"/>
	</filter>
</defs>
<mask maskUnits="userSpaceOnUse" x="277.264" y="-1992.422" width="0" height="0" id="SVGID_13_">
	<g filter="url(#Adobe_OpacityMaskFilter_4_)">
		
			<linearGradient id="SVGID_14_" gradientUnits="userSpaceOnUse" x1="-375.3167" y1="2268.3596" x2="-374.3167" y2="2268.3596" gradientTransform="matrix(-768 0 0 768 -287965.9063 -1744273.25)">
			<stop  offset="0" style="stop-color:#000000"/>
			<stop  offset="1" style="stop-color:#FFFFFF"/>
		</linearGradient>
		<rect x="-490.736" y="-2354.767" fill="url(#SVGID_14_)" width="768" height="362.345"/>
	</g>
</mask>
<linearGradient id="SVGID_15_" gradientUnits="userSpaceOnUse" x1="-375.3167" y1="2268.595" x2="-375.3167" y2="2268.595" gradientTransform="matrix(-768 0 0 768 -287965.9063 -1744273.25)">
	<stop  offset="0" style="stop-color:#FFFFFF"/>
	<stop  offset="1" style="stop-color:#000000"/>
</linearGradient>
<path mask="url(#SVGID_13_)" fill="url(#SVGID_15_)" d="M277.264-1992.422"/>
<path fill="none" d="M-490.736-2354.767"/>
<path fill="none" d="M277.264-1992.422"/>
<path fill="none" d="M277.264-1992.42"/>
<path fill="none" d="M-490.736-2354.77"/>
<path fill="none" d="M277.264-2008.326"/>
<path fill="none" d="M-490.133-2344.326"/>
<path fill="none" d="M-490.133-2405.11"/>
<path fill="none" d="M-490.133,2116.311"/>
<path fill="none" d="M-490.133-2405.11"/>
<path fill="none" d="M-490.133,2116.311"/>
<path fill="none" d="M-490.133-2405.11"/>
<path fill="none" d="M-490.133,2116.311"/>
<path fill="#FFFFFF" d="M277.868-1924.491"/>
<path fill="none" d="M-490.133-2405.11"/>
<path fill="none" d="M-490.133,2116.311"/>
<path fill="#FFFFFF" d="M277.868-1924.49"/>
<path fill="#FFFFFF" d="M277.868-1984.49"/>
<path fill="none" stroke="#D8D8D8" stroke-width="0.75" stroke-miterlimit="10" d="M277.87-1924.491"/>
<path fill="none" d="M-490.133-2405.11"/>
<path fill="none" d="M-490.133,2116.311"/>
<path fill="#FFFFFF" d="M277.868-1984.49"/>
<path fill="none" stroke="#D8D8D8" stroke-width="0.75" stroke-miterlimit="10" d="M277.87-1984.491"/>
<path fill="none" d="M-490.133-2405.11"/>
<path fill="none" d="M-490.133,2116.311"/>
<path fill="none" d="M-490.133-2405.11"/>
<path fill="none" d="M-490.133,2116.311"/>
<path fill="none" d="M-490.133-2405.11"/>
<path fill="none" d="M-490.133,2116.311"/>
<path fill="none" d="M-490.133-2405.11"/>
<path fill="none" d="M-490.133,2116.311"/>
<path fill="none" d="M-490.133-2405.11"/>
<path fill="none" d="M-490.133,2116.311"/>
<path fill="none" d="M-490.133-2405.11"/>
<path fill="none" d="M-490.133,2116.311"/>
<path fill="none" d="M-490.133-2405.11"/>
<path fill="none" d="M-490.133,2116.311"/>
<path fill="none" d="M-490.133-2405.11"/>
<path fill="none" d="M-490.133,2116.311"/>
<path fill="none" d="M-490.133-2405.11"/>
<path fill="none" d="M-490.133,2116.311"/>
<path fill="#FFFFFF" d="M277.87-1909.136"/>
<path fill="#FFFFFF" d="M-490.133-1849.136"/>
<path fill="none" d="M-490.133-2405.11"/>
<path fill="none" d="M-490.133,2116.311"/>
<path fill="#FFFFFF" d="M277.87-1969.136"/>
<path fill="#FFFFFF" d="M277.87-1909.136"/>
<path fill="none" d="M-490.133-2405.11"/>
<path fill="none" d="M-490.133,2116.311"/>
<path fill="none" stroke="#D8D8D8" stroke-width="0.75" stroke-miterlimit="10" d="M277.87-1909.135"/>
<path fill="#FFFFFF" d="M277.87-1969.136"/>
<path fill="none" d="M-490.133-2405.11"/>
<path fill="none" d="M-490.133,2116.311"/>
<path fill="none" stroke="#D8D8D8" stroke-width="0.75" stroke-miterlimit="10" d="M277.87-1969.135"/>
<path fill="none" d="M-490.133-2405.11"/>
<path fill="none" d="M-490.133,2116.311"/>
<path fill="none" d="M-490.133-2405.11"/>
<path fill="none" d="M-490.133,2116.311"/>
<path fill="#F2F2F2" d="M277.866-1909.136"/>
<path fill="none" d="M-490.133-2405.11"/>
<path fill="none" d="M-490.133,2116.311"/>
<path fill="none" d="M-490.133-2405.11"/>
<path fill="none" d="M-490.133,2116.311"/>
<path fill="none" d="M-490.133-2405.11"/>
<path fill="none" d="M-490.133,2116.311"/>
<path fill="none" d="M-490.133-2405.11"/>
<path fill="none" d="M-490.133,2116.311"/>
<path fill="#FFFFFF" d="M277.87-1909.136"/>
<path fill="#FFFFFF" d="M-490.133-1849.136"/>
<path fill="none" d="M-490.133-2405.11"/>
<path fill="none" d="M-490.133,2116.311"/>
<path fill="none" d="M-490.133-2405.11"/>
<path fill="none" d="M-490.133,2116.311"/>
<path fill="none" d="M-490.133-2405.11"/>
<path fill="none" d="M-490.133,2116.311"/>
<path fill="none" d="M-490.133-2405.11"/>
<path fill="none" d="M-490.133,2116.311"/>
<path fill="none" d="M-490.133-2405.11"/>
<path fill="none" d="M-490.133,2116.311"/>
<path fill="#F2F2F2" d="M-234.133-1909.136"/>
<polyline fill="none" stroke="#000000" stroke-width="1.75" stroke-miterlimit="10" points="12.124,-20.852 0.452,-20.852 
	0.452,-17.143 12.124,-17.143 "/>
<line fill="none" stroke="#000000" stroke-width="1.75" stroke-miterlimit="10" x1="7.329" y1="-20.581" x2="7.329" y2="-17.233"/>
<path fill="none" stroke="#000000" stroke-width="1.75" stroke-miterlimit="10" d="M-0.181,34.611c0,0-0.904-47.863,0.633-51.753"/>
<path fill="none" stroke="#000000" stroke-width="1.75" stroke-linejoin="round" stroke-miterlimit="10" d="M12.034-4.566
	c0,0-2.715,5.338-2.806,38.815"/>
<path fill="none" stroke="#000000" stroke-width="1.75" stroke-miterlimit="10" d="M3.529-17.505c0,0,1.356,7.238-3.348,9.229"/>
<line fill="none" stroke="#000000" stroke-width="1.75" stroke-miterlimit="10" x1="-0.181" y1="-13.885" x2="3.71" y2="-13.795"/>
<rect x="-0.542" y="35.232" fill="none" stroke="#000000" stroke-width="1.75" stroke-miterlimit="10" width="10.054" height="4.535"/>
<polyline fill="none" stroke="#000000" stroke-width="1.75" stroke-miterlimit="10" points="11.944,-20.852 23.616,-20.852 
	23.616,-17.143 11.944,-17.143 "/>
<line fill="none" stroke="#000000" stroke-width="1.75" stroke-miterlimit="10" x1="16.74" y1="-20.581" x2="16.74" y2="-17.233"/>
<path fill="none" stroke="#000000" stroke-width="1.75" stroke-miterlimit="10" d="M24.25,34.611c0,0,0.904-47.863-0.634-51.753"/>
<path fill="none" stroke="#000000" stroke-width="1.75" stroke-linecap="round" stroke-linejoin="round" stroke-miterlimit="10" d="
	M12.034-4.566c0,0,2.715,5.338,2.807,38.815"/>
<path fill="none" stroke="#000000" stroke-width="1.75" stroke-miterlimit="10" d="M20.54-17.505c0,0-1.357,7.238,3.348,9.229"/>
<line fill="none" stroke="#000000" stroke-width="1.75" stroke-miterlimit="10" x1="24.25" y1="-13.885" x2="20.359" y2="-13.795"/>
<rect x="14.557" y="35.232" fill="none" stroke="#000000" stroke-width="1.75" stroke-miterlimit="10" width="10.053" height="4.535"/>
<path fill="none" stroke="#000000" stroke-width="1.75" stroke-linecap="round" stroke-linejoin="round" stroke-miterlimit="10" d="
	M12.034-16.781l0.137,9.636c0,0,2.441,0,2.486-3.076c0.046-3.077,0-6.876,0-6.876"/>
<path fill="none" stroke="#D8D8D8" stroke-width="0.75" stroke-miterlimit="10" d="M277.87-1909.135"/>
<path fill="none" d="M-490.133-2405.11"/>
<path fill="none" d="M-490.133,2116.311"/>
<path fill="#606060" d="M-490.133,2116.311"/>
<path fill="#606060" d="M-490.133-2405.11"/>
<path fill="#606060" d="M-490.133-2405.11"/>
<path fill="#606060" d="M-490.133,2116.311"/>
<path fill="#606060" d="M-490.133,2116.311"/>
<path fill="#606060" d="M-490.133-2405.11"/>
<path fill="#606060" d="M-490.133-2405.11"/>
<path fill="#606060" d="M-490.133,2116.311"/>
<path fill="#606060" d="M-490.133,2116.311"/>
<path fill="#606060" d="M-490.133-2405.11"/>
<path fill="#606060" d="M-490.133-2405.11"/>
<path fill="#606060" d="M-490.133,2116.311"/>
<path fill="#606060" d="M-490.133,2116.311"/>
<path fill="#606060" d="M-490.133-2405.11"/>
<path fill="#606060" d="M-490.133-2405.11"/>
<path fill="#606060" d="M-490.133,2116.311"/>
<path fill="#606060" d="M-490.133,2116.311"/>
<path fill="#606060" d="M-490.133-2405.11"/>
<path fill="#606060" d="M-490.133-2405.11"/>
<path fill="#606060" d="M-490.133,2116.311"/>
<path fill="none" d="M-490.133,2116.311"/>
<path fill="none" d="M-490.133-2405.11"/>
</svg>
