<?xml version="1.0" encoding="utf-8"?>
<!-- Generator: Adobe Illustrator 16.0.3, SVG Export Plug-In . SVG Version: 6.00 Build 0)  -->
<!DOCTYPE svg PUBLIC "-//W3C//DTD SVG 1.1//EN" "http://www.w3.org/Graphics/SVG/1.1/DTD/svg11.dtd">
<svg version="1.1" id="Capa_1" xmlns="http://www.w3.org/2000/svg" xmlns:xlink="http://www.w3.org/1999/xlink" x="0px" y="0px"
	 width="29.52px" height="18px" viewBox="0 0 29.52 18" enable-background="new 0 0 29.52 18" xml:space="preserve">
<path fill="none" d="M403.618-2251.993"/>
<path fill="none" d="M403.618-1736.782"/>
<g>
	<defs>
		<polygon id="SVGID_2_" points="-1,-1 -2,-1 -1,-2 		"/>
	</defs>
	<clipPath id="SVGID_3_">
		<use xlink:href="#SVGID_2_"  overflow="visible"/>
	</clipPath>
	<defs>
		<filter id="Adobe_OpacityMaskFilter" filterUnits="userSpaceOnUse" x="20.745" y="-156.12" width="0" height="362.347">
			<feColorMatrix  type="matrix" values="1 0 0 0 0  0 1 0 0 0  0 0 1 0 0  0 0 0 1 0"/>
		</filter>
	</defs>
	<mask maskUnits="userSpaceOnUse" x="20.745" y="-156.12" width="0" height="362.347" id="SVGID_1_">
		<g filter="url(#Adobe_OpacityMaskFilter)">
			
				<linearGradient id="SVGID_4_" gradientUnits="userSpaceOnUse" x1="-394.1174" y1="-2222.3403" x2="-393.1174" y2="-2222.3403" gradientTransform="matrix(-768 0 0 -768 -302282.0625 -1708771.5)">
				<stop  offset="0" style="stop-color:#000000"/>
				<stop  offset="1" style="stop-color:#FFFFFF"/>
			</linearGradient>
			<rect x="-367.603" y="-2195.324" clip-path="url(#SVGID_3_)" fill="url(#SVGID_4_)" width="768" height="362.345"/>
		</g>
	</mask>
	<line clip-path="url(#SVGID_3_)" mask="url(#SVGID_1_)" fill="none" x1="20.745" y1="-156.12" x2="20.745" y2="206.227"/>
</g>
<path fill="none" stroke="#D8D8D8" stroke-width="0.75" stroke-miterlimit="10" d="M-250.181-2048.831"/>
<path fill="none" stroke="#D8D8D8" stroke-width="0.75" stroke-miterlimit="10" d="M-250.181-2048.831"/>
<line fill="none" x1="69.349" y1="4314.957" x2="69.349" y2="-206.462"/>
<line fill="none" x1="75.348" y1="-206.462" x2="75.348" y2="4314.957"/>
<path fill="#606060" d="M22.349-206.462"/>
<path fill="#606060" d="M22.349,4314.957"/>
<path fill="none" d="M400.999-2245.667"/>
<path fill="none" d="M400.999,2275.752"/>
<path fill="#0000FF" d="M11.825,15.849c-0.654-3.565-2.461-5.838-5.241-6.581c-0.275-0.073-0.275-0.462,0-0.535
	c2.78-0.743,4.587-3.017,5.241-6.581c0.059-0.318,0.491-0.318,0.55,0c0.654,3.564,2.461,5.838,5.241,6.581
	c0.273,0.073,0.273,0.462,0,0.535c-2.779,0.743-4.586,3.016-5.241,6.581C12.316,16.166,11.884,16.166,11.825,15.849"/>
<path fill="#0000FF" d="M20.274,9.318c-0.32-1.747-1.206-2.86-2.568-3.225c-0.135-0.036-0.135-0.227,0-0.263
	c1.362-0.364,2.248-1.478,2.568-3.226c0.027-0.155,0.24-0.155,0.27,0c0.32,1.748,1.206,2.861,2.568,3.226
	c0.135,0.036,0.135,0.227,0,0.263c-1.362,0.364-2.248,1.478-2.568,3.225C20.514,9.475,20.301,9.475,20.274,9.318"/>
<path fill="#0000FF" d="M18.497,15.575c-0.209-1.137-0.784-1.861-1.671-2.098c-0.089-0.024-0.089-0.147,0-0.171
	c0.887-0.237,1.462-0.962,1.671-2.099c0.019-0.101,0.155-0.101,0.175,0c0.209,1.137,0.785,1.861,1.671,2.099
	c0.088,0.023,0.088,0.146,0,0.171c-0.886,0.236-1.462,0.961-1.671,2.098C18.653,15.677,18.516,15.677,18.497,15.575"/>
</svg>
