<?xml version="1.0" encoding="utf-8"?>
<!-- Generator: Adobe Illustrator 16.0.3, SVG Export Plug-In . SVG Version: 6.00 Build 0)  -->
<!DOCTYPE svg PUBLIC "-//W3C//DTD SVG 1.1//EN" "http://www.w3.org/Graphics/SVG/1.1/DTD/svg11.dtd">
<svg version="1.1" id="Capa_1" xmlns="http://www.w3.org/2000/svg" xmlns:xlink="http://www.w3.org/1999/xlink" x="0px" y="0px"
	 width="29.52px" height="21.354px" viewBox="0 -1.889 29.52 21.354" enable-background="new 0 -1.889 29.52 21.354"
	 xml:space="preserve">
<path fill="none" d="M403.618-2251.993"/>
<path fill="none" d="M403.618-1736.782"/>
<g>
	<defs>
		<path id="SVGID_1_" d="M-2-1"/>
	</defs>
	<clipPath id="SVGID_4_">
		<use xlink:href="#SVGID_1_"  overflow="visible"/>
	</clipPath>
	<defs>
		<filter id="Adobe_OpacityMaskFilter" filterUnits="userSpaceOnUse" x="20.745" y="206.227" width="0" height="0">
			<feColorMatrix  type="matrix" values="1 0 0 0 0  0 1 0 0 0  0 0 1 0 0  0 0 0 1 0"/>
		</filter>
	</defs>
	<mask maskUnits="userSpaceOnUse" x="20.745" y="206.227" width="0" height="0" id="SVGID_3_">
		<g filter="url(#Adobe_OpacityMaskFilter)">
			
				<linearGradient id="SVGID_5_" gradientUnits="userSpaceOnUse" x1="-394.1174" y1="-2222.3403" x2="-393.1174" y2="-2222.3403" gradientTransform="matrix(-768 0 0 -768 -302282.0625 -1708771.5)">
				<stop  offset="0" style="stop-color:#000000"/>
				<stop  offset="1" style="stop-color:#FFFFFF"/>
			</linearGradient>
			<rect x="-367.603" y="-2195.324" clip-path="url(#SVGID_4_)" fill="url(#SVGID_5_)" width="768" height="362.345"/>
		</g>
	</mask>
	<path clip-path="url(#SVGID_4_)" mask="url(#SVGID_3_)" fill="none" d="M20.745,206.227"/>
	<defs>
		<filter id="Adobe_OpacityMaskFilter_1_" filterUnits="userSpaceOnUse" x="20.745" y="-156.12" width="0" height="0">
			<feColorMatrix  type="matrix" values="1 0 0 0 0  0 1 0 0 0  0 0 1 0 0  0 0 0 1 0"/>
		</filter>
	</defs>
	<mask maskUnits="userSpaceOnUse" x="20.745" y="-156.12" width="0" height="0" id="SVGID_2_">
		<g filter="url(#Adobe_OpacityMaskFilter_1_)">
			
				<linearGradient id="SVGID_6_" gradientUnits="userSpaceOnUse" x1="-394.1174" y1="-2222.3403" x2="-393.1174" y2="-2222.3403" gradientTransform="matrix(-768 0 0 -768 -302282.0625 -1708771.5)">
				<stop  offset="0" style="stop-color:#000000"/>
				<stop  offset="1" style="stop-color:#FFFFFF"/>
			</linearGradient>
			<rect x="-367.603" y="-2195.324" clip-path="url(#SVGID_4_)" fill="url(#SVGID_6_)" width="768" height="362.345"/>
		</g>
	</mask>
	<path clip-path="url(#SVGID_4_)" mask="url(#SVGID_2_)" fill="none" d="M20.745-156.12"/>
</g>
<path fill="none" stroke="#D8D8D8" stroke-width="0.75" stroke-miterlimit="10" d="M-250.181-2048.831"/>
<path fill="none" stroke="#D8D8D8" stroke-width="0.75" stroke-miterlimit="10" d="M-250.181-2048.831"/>
<line fill="none" x1="69.349" y1="4314.957" x2="69.349" y2="-206.462"/>
<line fill="none" x1="75.348" y1="-206.462" x2="75.348" y2="4314.957"/>
<path fill="#606060" d="M22.349-206.462"/>
<path fill="#606060" d="M22.349,4314.957"/>
<path fill="none" d="M400.999-2245.667"/>
<path fill="none" d="M400.999,2275.752"/>
<line fill="#FFFFFF" x1="-35.406" y1="3872.96" x2="-35.406" y2="-648.461"/>
<line fill="#FFFFFF" x1="-35.406" y1="3872.96" x2="-35.406" y2="-648.461"/>
<line fill="none" x1="-35.405" y1="-648.46" x2="-35.405" y2="3872.96"/>
<line fill="none" x1="-35.405" y1="-648.46" x2="-35.405" y2="3872.96"/>
<line fill="none" x1="-35.405" y1="-648.46" x2="-35.405" y2="3872.96"/>
<line fill="none" x1="-35.405" y1="-648.46" x2="-35.405" y2="3872.96"/>
<line fill="none" x1="-35.405" y1="-648.46" x2="-35.405" y2="3872.96"/>
<line fill="none" x1="-35.405" y1="-648.46" x2="-35.405" y2="3872.96"/>
<line fill="none" x1="-35.405" y1="-648.46" x2="-35.405" y2="3872.96"/>
<line fill="none" x1="-35.405" y1="-648.46" x2="-35.405" y2="3872.96"/>
<line fill="none" x1="-35.405" y1="-648.46" x2="-35.405" y2="3872.96"/>
<line fill="none" x1="-35.405" y1="-648.46" x2="-35.405" y2="3872.96"/>
<line fill="none" x1="-35.405" y1="-648.46" x2="-35.405" y2="3872.96"/>
<line fill="none" x1="-35.405" y1="-648.46" x2="-35.405" y2="3872.96"/>
<line fill="none" x1="-35.405" y1="-648.46" x2="-35.405" y2="3872.96"/>
<line fill="none" x1="-35.405" y1="-648.46" x2="-35.405" y2="3872.96"/>
<line fill="none" x1="-35.405" y1="-648.46" x2="-35.405" y2="3872.96"/>
<line fill="none" x1="-35.405" y1="-648.46" x2="-35.405" y2="3872.96"/>
<line fill="none" x1="20.918" y1="111.236" x2="318.323" y2="-1827.797"/>
<line fill="none" x1="-35.405" y1="-648.46" x2="-35.405" y2="3872.96"/>
<line fill="none" x1="-35.405" y1="-648.46" x2="-35.405" y2="3872.96"/>
<line fill="none" x1="-35.405" y1="-648.46" x2="-35.405" y2="3872.96"/>
<line fill="none" x1="-35.405" y1="-648.46" x2="-35.405" y2="3872.96"/>
<line fill="none" x1="-35.405" y1="-648.46" x2="-35.405" y2="3872.96"/>
<line fill="none" x1="-35.405" y1="-648.46" x2="-35.405" y2="3872.96"/>
<line fill="none" x1="-35.405" y1="-648.46" x2="-35.405" y2="3872.96"/>
<line fill="none" x1="-35.405" y1="-648.46" x2="-35.405" y2="3872.96"/>
<line fill="none" x1="-35.405" y1="-648.46" x2="-35.405" y2="3872.96"/>
<line fill="none" x1="-35.405" y1="-648.46" x2="-35.405" y2="3872.96"/>
<line fill="none" x1="-35.405" y1="-648.46" x2="-35.405" y2="3872.96"/>
<line fill="none" x1="-35.405" y1="-648.46" x2="-35.405" y2="3872.96"/>
<line fill="none" x1="-35.405" y1="-648.46" x2="-35.405" y2="3872.96"/>
<line fill="none" x1="-35.405" y1="-648.46" x2="-35.405" y2="3872.96"/>
<line fill="#FFFFFF" x1="-35.405" y1="87.514" x2="-35.405" y2="27.514"/>
<line fill="none" x1="-35.405" y1="-648.46" x2="-35.405" y2="3872.96"/>
<line fill="none" x1="-35.405" y1="-648.46" x2="-35.405" y2="3872.96"/>
<line fill="none" x1="-35.405" y1="-648.46" x2="-35.405" y2="3872.96"/>
<line fill="none" x1="-35.405" y1="-648.46" x2="-35.405" y2="3872.96"/>
<line fill="none" x1="-35.405" y1="-648.46" x2="-35.405" y2="3872.96"/>
<line fill="none" x1="-35.405" y1="-648.46" x2="-35.405" y2="3872.96"/>
<line fill="none" x1="-35.405" y1="-648.46" x2="-35.405" y2="3872.96"/>
<line fill="none" x1="-35.405" y1="-648.46" x2="-35.405" y2="3872.96"/>
<line fill="none" x1="-35.405" y1="-648.46" x2="-35.405" y2="3872.96"/>
<line fill="#FFFFFF" x1="-35.405" y1="87.514" x2="-35.405" y2="27.514"/>
<circle fill="none" stroke="#000000" stroke-width="0.75" stroke-miterlimit="10" cx="14.724" cy="8.781" r="6.248"/>
<line fill="none" stroke="#000000" stroke-width="0.75" stroke-miterlimit="10" x1="14.724" y1="-0.801" x2="14.724" y2="5.916"/>
<line fill="none" stroke="#000000" stroke-width="0.75" stroke-miterlimit="10" x1="14.724" y1="11.748" x2="14.724" y2="18.465"/>
<line fill="none" stroke="#000000" stroke-width="0.75" stroke-miterlimit="10" x1="24.357" y1="8.832" x2="17.639" y2="8.832"/>
<line fill="none" stroke="#000000" stroke-width="0.75" stroke-miterlimit="10" x1="11.808" y1="8.832" x2="5.09" y2="8.832"/>
<line fill="none" x1="-35.405" y1="-648.46" x2="-35.405" y2="3872.96"/>
<line fill="none" x1="-35.405" y1="-648.46" x2="-35.405" y2="3872.96"/>
<line fill="none" x1="-35.405" y1="-648.46" x2="-35.405" y2="3872.96"/>
<line fill="none" x1="-35.405" y1="-648.46" x2="-35.405" y2="3872.96"/>
<line fill="none" x1="-35.405" y1="-648.46" x2="-35.405" y2="3872.96"/>
<line fill="none" x1="-35.405" y1="-648.46" x2="-35.405" y2="3872.96"/>
<line fill="none" x1="-35.405" y1="-648.46" x2="-35.405" y2="3872.96"/>
<line fill="none" x1="-35.405" y1="-648.46" x2="-35.405" y2="3872.96"/>
<line fill="#606060" x1="-35.405" y1="3872.96" x2="-35.405" y2="-648.46"/>
<line fill="#606060" x1="-35.406" y1="-648.46" x2="-35.406" y2="3872.96"/>
<line fill="#606060" x1="-35.405" y1="3872.96" x2="-35.405" y2="-648.46"/>
<line fill="#606060" x1="-35.406" y1="-648.46" x2="-35.406" y2="3872.96"/>
<line fill="#606060" x1="-35.405" y1="3872.96" x2="-35.405" y2="-648.46"/>
<line fill="#606060" x1="-35.406" y1="-648.46" x2="-35.406" y2="3872.96"/>
<line fill="#606060" x1="-35.405" y1="3872.96" x2="-35.405" y2="-648.46"/>
<line fill="#606060" x1="-35.406" y1="-648.46" x2="-35.406" y2="3872.96"/>
<line fill="#606060" x1="-35.405" y1="3872.96" x2="-35.405" y2="-648.46"/>
<line fill="#606060" x1="-35.406" y1="-648.46" x2="-35.406" y2="3872.96"/>
<line fill="none" x1="-35.405" y1="3872.96" x2="-35.405" y2="-648.46"/>
</svg>
