<?xml version="1.0" encoding="UTF-8" standalone="no"?>
<!-- Generator: Adobe Illustrator 16.0.3, SVG Export Plug-In . SVG Version: 6.00 Build 0)  -->

<svg
   xmlns:dc="http://purl.org/dc/elements/1.1/"
   xmlns:cc="http://creativecommons.org/ns#"
   xmlns:rdf="http://www.w3.org/1999/02/22-rdf-syntax-ns#"
   xmlns:svg="http://www.w3.org/2000/svg"
   xmlns="http://www.w3.org/2000/svg"
   xmlns:sodipodi="http://sodipodi.sourceforge.net/DTD/sodipodi-0.dtd"
   xmlns:inkscape="http://www.inkscape.org/namespaces/inkscape"
   version="1.1"
   id="Capa_1"
   x="0px"
   y="0px"
   width="156"
   height="61"
   viewBox="0 0 156 61.000003"
   enable-background="new 0 0 100.38 16.585"
   xml:space="preserve"
   inkscape:version="0.47 r22583"
   sodipodi:docname="logo.svg"
   inkscape:export-filename="C:\Users\Yelitza\Desktop\logo.png"
   inkscape:export-xdpi="90"
   inkscape:export-ydpi="90"><metadata
   id="metadata17"><rdf:RDF><cc:Work
       rdf:about=""><dc:format>image/svg+xml</dc:format><dc:type
         rdf:resource="http://purl.org/dc/dcmitype/StillImage" /><dc:title></dc:title></cc:Work></rdf:RDF></metadata><defs
   id="defs15"><inkscape:perspective
     sodipodi:type="inkscape:persp3d"
     inkscape:vp_x="0 : 8.2924995 : 1"
     inkscape:vp_y="0 : 1000 : 0"
     inkscape:vp_z="100.38 : 8.2924995 : 1"
     inkscape:persp3d-origin="50.189999 : 5.528333 : 1"
     id="perspective19" /></defs><sodipodi:namedview
   pagecolor="#ffffff"
   bordercolor="#666666"
   borderopacity="1"
   objecttolerance="10"
   gridtolerance="10"
   guidetolerance="10"
   inkscape:pageopacity="0"
   inkscape:pageshadow="2"
   inkscape:window-width="1280"
   inkscape:window-height="738"
   id="namedview13"
   showgrid="false"
   inkscape:zoom="5.3795578"
   inkscape:cx="50.189999"
   inkscape:cy="16.057972"
   inkscape:window-x="-8"
   inkscape:window-y="-8"
   inkscape:window-maximized="1"
   inkscape:current-layer="Capa_1" />
<path
   clip-rule="evenodd"
   d="m 15.717779,20.607897 12.701073,0 c 2.118731,0 3.745815,0.453597 4.876226,1.364359 1.134181,0.915525 1.701272,2.044157 1.701272,3.388279 0,1.12744 -0.403629,2.09654 -1.212141,2.906108 -0.541943,0.536933 -1.32908,0.965528 -2.367698,1.273878 1.579305,0.32978 2.742405,0.897668 3.483018,1.697711 0.745642,0.802424 1.117837,1.809622 1.117837,3.022781 0,0.985768 -0.264057,1.873911 -0.792168,2.662049 -0.531882,0.790518 -1.252377,1.415552 -2.174057,1.87391 -0.568349,0.28573 -1.4259,0.492884 -2.57517,0.625033 -1.52901,0.170248 -2.542479,0.258348 -3.040412,0.258348 l -11.71778,0 0,-19.072456 z m 6.783713,7.394445 3.010233,0 c 1.077598,0 1.829529,-0.161913 2.252017,-0.48693 0.423747,-0.320256 0.636249,-0.788138 0.636249,-1.401266 0,-0.56908 -0.212502,-1.010769 -0.636249,-1.328644 -0.422488,-0.319065 -1.158071,-0.480977 -2.205492,-0.480977 l -3.056758,0 0,3.697817 z m 0,7.592077 3.490563,0 c 1.179449,0 2.010595,-0.178582 2.494697,-0.541697 0.485359,-0.365495 0.726781,-0.851236 0.726781,-1.463173 0,-0.567889 -0.241422,-1.027437 -0.720494,-1.36674 -0.477816,-0.346449 -1.316506,-0.521457 -2.516072,-0.521457 l -3.475475,0 0,3.893067 z"
   id="path3"
   style="fill-rule:evenodd" />
<path
   clip-rule="evenodd"
   d="m 39.032628,30.096503 c 0,-3.115644 0.997124,-5.543156 2.993888,-7.278963 1.99802,-1.735808 4.780662,-2.606093 8.347926,-2.606093 3.656541,0 6.473133,0.851236 8.449778,2.560852 1.977901,1.703663 2.966225,4.093076 2.966225,7.168243 0,2.234644 -0.428778,4.063315 -1.292616,5.488392 -0.866354,1.432219 -2.114959,2.541803 -3.748331,3.337084 -1.634631,0.7929 -3.669115,1.190541 -6.10597,1.190541 -2.477092,0 -4.526667,-0.341686 -6.148723,-1.027437 -1.623313,-0.688133 -2.941076,-1.771524 -3.948258,-3.257319 -1.009699,-1.484602 -1.513919,-3.339465 -1.513919,-5.5753 m 6.787484,0.03095 c 0,1.931055 0.411174,3.316846 1.234774,4.158557 0.824861,0.844094 1.946468,1.266735 3.36608,1.266735 1.456079,0 2.585231,-0.411927 3.382426,-1.239352 0.798455,-0.825045 1.200824,-2.308459 1.200824,-4.446668 0,-1.800097 -0.418716,-3.114455 -1.252377,-3.944261 -0.832403,-0.829807 -1.964072,-1.247685 -3.392485,-1.247685 -1.369318,0 -2.467034,0.423832 -3.295665,1.265544 -0.831147,0.844093 -1.243577,2.239405 -1.243577,4.18713"
   id="path5"
   style="fill-rule:evenodd" />
<polygon
   clip-rule="evenodd"
   points="58.665,16.354 53.382,16.354 50.321,6.265 47.271,16.354 41.984,16.354 38.101,0.333 43.223,0.333 45.072,9.263 47.761,0.333 52.854,0.333 55.569,9.278 57.419,0.333 62.517,0.333 "
   id="polygon7"
   style="fill-rule:evenodd"
   transform="matrix(1.2574074,0,0,1.1905403,15.717779,20.211447)" />
<polygon
   clip-rule="evenodd"
   points="80.106,16.354 65.394,16.354 65.394,0.333 79.78,0.333 79.78,3.766 70.788,3.766 70.788,6.218 79.126,6.218 79.126,9.487 70.788,9.487 70.788,12.595 80.106,12.595 "
   id="polygon9"
   style="fill-rule:evenodd"
   transform="matrix(1.2574074,0,0,1.1905403,15.717779,20.211447)" />
<polygon
   clip-rule="evenodd"
   points="100.38,0.333 100.38,16.354 95.323,16.354 88.772,7.53 88.772,16.354 83.704,16.354 83.704,0.333 88.741,0.333 95.312,9.204 95.312,0.333 "
   id="polygon11"
   style="fill-rule:evenodd"
   transform="matrix(1.2574074,0,0,1.1905403,15.717779,20.211447)" />
</svg>